<?xml version="1.0" encoding="UTF-8" standalone="no"?>
<!DOCTYPE svg PUBLIC "-//W3C//DTD SVG 1.1//EN"
 "http://www.w3.org/Graphics/SVG/1.1/DTD/svg11.dtd">
<!-- Generated by graphviz version 2.40.1 (20161225.0304)
 -->
<!-- Title: g Pages: 1 -->
<svg width="1449pt" height="2608pt"
 viewBox="0.00 0.00 1449.09 2608.17" xmlns="http://www.w3.org/2000/svg" xmlns:xlink="http://www.w3.org/1999/xlink">
<g id="graph0" class="graph" transform="scale(1 1) rotate(0) translate(4 2604.1712)">
<title>g</title>
<polygon fill="#ffffff" stroke="transparent" points="-4,4 -4,-2604.1712 1445.0941,-2604.1712 1445.0941,4 -4,4"/>
<!-- 10.0.0.121 -->
<g id="node1" class="node">
<title>10.0.0.121</title>
<ellipse fill="none" stroke="#000000" cx="1054.75" cy="-485.3012" rx="101.2327" ry="26.7407"/>
<text text-anchor="middle" x="1054.75" y="-489.1012" font-family="Times,serif" font-size="14.00" fill="#000000">10.0.0.121</text>
<text text-anchor="middle" x="1054.75" y="-474.1012" font-family="Times,serif" font-size="14.00" fill="#000000">retropie.fritz.box.</text>
</g>
<!-- Internet -->
<g id="node36" class="node">
<title>Internet</title>
<ellipse fill="none" stroke="#000000" cx="1374.8" cy="-629.3012" rx="49.2915" ry="18"/>
<text text-anchor="middle" x="1374.8" y="-625.6012" font-family="Times,serif" font-size="14.00" fill="#000000">Internet</text>
</g>
<!-- 10.0.0.121&#45;&gt;Internet -->
<g id="edge46" class="edge">
<title>10.0.0.121&#45;&gt;Internet</title>
<path fill="none" stroke="#d3d3d3" stroke-width="1.7797" d="M1143.9749,-498.1525C1169.0427,-503.5244 1195.8907,-510.9981 1219.5058,-521.3012 1268.7541,-542.7878 1318.4859,-580.9255 1347.9659,-605.6529"/>
<polygon fill="#d3d3d3" stroke="#d3d3d3" stroke-width="1.7797" points="1345.8395,-608.439 1355.7265,-612.2467 1350.372,-603.1045 1345.8395,-608.439"/>
<text text-anchor="middle" x="1264.0058" y="-564.1012" font-family="Times,serif" font-size="14.00" fill="#000000">0&#45;&gt;0</text>
</g>
<!-- 10.0.0.100 -->
<g id="node2" class="node">
<title>10.0.0.100</title>
<ellipse fill="none" stroke="#000000" cx="200.8183" cy="-1203.3012" rx="164.5121" ry="26.7407"/>
<text text-anchor="middle" x="200.8183" y="-1207.1012" font-family="Times,serif" font-size="14.00" fill="#000000">10.0.0.100</text>
<text text-anchor="middle" x="200.8183" y="-1192.1012" font-family="Times,serif" font-size="14.00" fill="#000000">DESKTOP&#45;3RK1MPV.fritz.box.</text>
</g>
<!-- 10.0.0.23 -->
<g id="node3" class="node">
<title>10.0.0.23</title>
<ellipse fill="none" stroke="#000000" cx="200.8183" cy="-1131.3012" rx="140.9288" ry="26.7407"/>
<text text-anchor="middle" x="200.8183" y="-1135.1012" font-family="Times,serif" font-size="14.00" fill="#000000">10.0.0.23</text>
<text text-anchor="middle" x="200.8183" y="-1120.1012" font-family="Times,serif" font-size="14.00" fill="#000000">Galaxy&#45;A5&#45;2017.fritz.box.</text>
</g>
<!-- 10.0.0.1 -->
<g id="node27" class="node">
<title>10.0.0.1</title>
<ellipse fill="none" stroke="#000000" cx="645.8154" cy="-425.3012" rx="57.0522" ry="26.7407"/>
<text text-anchor="middle" x="645.8154" y="-429.1012" font-family="Times,serif" font-size="14.00" fill="#000000">10.0.0.1</text>
<text text-anchor="middle" x="645.8154" y="-414.1012" font-family="Times,serif" font-size="14.00" fill="#000000">fritz.box.</text>
</g>
<!-- 10.0.0.23&#45;&gt;10.0.0.1 -->
<g id="edge29" class="edge">
<title>10.0.0.23&#45;&gt;10.0.0.1</title>
<path fill="none" stroke="#d3d3d3" stroke-width=".6597" d="M318.9623,-1116.5572C378.6845,-1103.0241 447.4635,-1077.071 490.6367,-1027.3012 491.8376,-1025.9167 602.8722,-592.8831 636.3604,-462.2046"/>
<polygon fill="#d3d3d3" stroke="#d3d3d3" stroke-width=".6597" points="639.8148,-462.8234 638.9068,-452.2676 633.0339,-461.0857 639.8148,-462.8234"/>
<text text-anchor="middle" x="455.1367" y="-1082.1012" font-family="Times,serif" font-size="14.00" fill="#000000">0&#45;&gt;53</text>
</g>
<!-- 10.0.0.23&#45;&gt;Internet -->
<g id="edge38" class="edge">
<title>10.0.0.23&#45;&gt;Internet</title>
<path fill="none" stroke="#d3d3d3" stroke-width="2.3987" d="M341.6786,-1131.0018C584.0561,-1128.4734 1068.5236,-1114.0148 1219.5058,-1040.3012 1259.0471,-1020.9961 1268.6164,-1009.4725 1290.5058,-971.3012 1350.771,-866.2093 1368.2428,-718.9637 1373.0631,-657.7392"/>
<polygon fill="#d3d3d3" stroke="#d3d3d3" stroke-width="2.3987" points="1376.5607,-657.8983 1373.801,-647.6692 1369.5794,-657.3866 1376.5607,-657.8983"/>
<text text-anchor="middle" x="836.4941" y="-1117.1012" font-family="Times,serif" font-size="14.00" fill="#000000">0&#45;&gt;0</text>
</g>
<!-- 10.0.0.23&#45;&gt;Internet -->
<g id="edge44" class="edge">
<title>10.0.0.23&#45;&gt;Internet</title>
<path fill="none" stroke="#0000ff" stroke-width=".6406" d="M334.4256,-1139.7945C362.5577,-1141.2557 392.0634,-1142.5457 419.6367,-1143.3012 775.8706,-1153.0618 900.2741,-1245.6961 1219.5058,-1087.3012 1259.7643,-1067.3259 1269.0898,-1054.812 1290.5058,-1015.3012 1356.4571,-893.6268 1370.8113,-723.9704 1373.9332,-657.5491"/>
<polygon fill="#0000ff" stroke="#0000ff" stroke-width=".6406" points="1377.4349,-657.5799 1374.3571,-647.442 1370.441,-657.2865 1377.4349,-657.5799"/>
<text text-anchor="middle" x="836.4941" y="-1183.1012" font-family="Times,serif" font-size="14.00" fill="#000000">0&#45;&gt;443</text>
</g>
<!-- 10.0.0.22 -->
<g id="node4" class="node">
<title>10.0.0.22</title>
<ellipse fill="none" stroke="#000000" cx="200.8183" cy="-1275.3012" rx="158.2839" ry="26.7407"/>
<text text-anchor="middle" x="200.8183" y="-1279.1012" font-family="Times,serif" font-size="14.00" fill="#000000">10.0.0.22</text>
<text text-anchor="middle" x="200.8183" y="-1264.1012" font-family="Times,serif" font-size="14.00" fill="#000000">LAPTOP&#45;JB3S027G.fritz.box.</text>
</g>
<!-- 10.0.0.98 -->
<g id="node5" class="node">
<title>10.0.0.98</title>
<ellipse fill="none" stroke="#000000" cx="200.8183" cy="-1347.3012" rx="111.9462" ry="26.7407"/>
<text text-anchor="middle" x="200.8183" y="-1351.1012" font-family="Times,serif" font-size="14.00" fill="#000000">10.0.0.98</text>
<text text-anchor="middle" x="200.8183" y="-1336.1012" font-family="Times,serif" font-size="14.00" fill="#000000">Galaxy&#45;A6.fritz.box.</text>
</g>
<!-- 10.0.0.44 -->
<g id="node6" class="node">
<title>10.0.0.44</title>
<ellipse fill="none" stroke="#000000" cx="200.8183" cy="-1419.3012" rx="111.9462" ry="26.7407"/>
<text text-anchor="middle" x="200.8183" y="-1423.1012" font-family="Times,serif" font-size="14.00" fill="#000000">10.0.0.44</text>
<text text-anchor="middle" x="200.8183" y="-1408.1012" font-family="Times,serif" font-size="14.00" fill="#000000">Galaxy&#45;S9.fritz.box.</text>
</g>
<!-- 10.0.0.28 -->
<g id="node7" class="node">
<title>10.0.0.28</title>
<ellipse fill="none" stroke="#000000" cx="200.8183" cy="-1028.3012" rx="60.623" ry="26.7407"/>
<text text-anchor="middle" x="200.8183" y="-1032.1012" font-family="Times,serif" font-size="14.00" fill="#000000">10.0.0.28</text>
<text text-anchor="middle" x="200.8183" y="-1017.1012" font-family="Times,serif" font-size="14.00" fill="#000000">localhost.</text>
</g>
<!-- 10.0.0.28&#45;&gt;10.0.0.1 -->
<g id="edge41" class="edge">
<title>10.0.0.28&#45;&gt;10.0.0.1</title>
<path fill="none" stroke="#d3d3d3" stroke-width="1.4132" d="M256.1892,-1017.0414C335.4758,-1000.4618 473.7146,-969.68 490.6367,-953.3012 562.9733,-883.2867 621.3702,-570.7591 639.7605,-462.4226"/>
<polygon fill="#d3d3d3" stroke="#d3d3d3" stroke-width="1.4132" points="643.2566,-462.7376 641.4637,-452.2956 636.3536,-461.5766 643.2566,-462.7376"/>
<text text-anchor="middle" x="455.1367" y="-982.1012" font-family="Times,serif" font-size="14.00" fill="#000000">0&#45;&gt;53</text>
</g>
<!-- 10.0.0.28&#45;&gt;Internet -->
<g id="edge15" class="edge">
<title>10.0.0.28&#45;&gt;Internet</title>
<path fill="none" stroke="#d3d3d3" stroke-width="3.5982" d="M261.5738,-1030.342C468.9095,-1035.9508 1143.8418,-1042.6237 1290.5058,-898.3012 1325.3779,-863.9859 1357.1953,-719.1949 1369.4593,-657.4196"/>
<polygon fill="#d3d3d3" stroke="#d3d3d3" stroke-width="3.5982" points="1372.9012,-658.0555 1371.3883,-647.5693 1366.0317,-656.7102 1372.9012,-658.0555"/>
<text text-anchor="middle" x="836.4941" y="-1024.1012" font-family="Times,serif" font-size="14.00" fill="#000000">0&#45;&gt;0</text>
</g>
<!-- 10.0.0.28&#45;&gt;Internet -->
<g id="edge47" class="edge">
<title>10.0.0.28&#45;&gt;Internet</title>
<path fill="none" stroke="#0000ff" stroke-width="1.9727" d="M246.9207,-1045.9609C290.6294,-1061.6956 358.5144,-1083.5461 419.6367,-1092.3012 486.9544,-1101.9437 1075.5606,-1057.8112 1219.5058,-992.3012 1257.6362,-974.9479 1268.1459,-965.7285 1290.5058,-930.3012 1346.8504,-841.028 1366.2378,-713.6238 1372.2996,-657.5881"/>
<polygon fill="#0000ff" stroke="#0000ff" stroke-width="1.9727" points="1375.8095,-657.6683 1373.3413,-647.365 1368.8455,-656.9586 1375.8095,-657.6683"/>
<text text-anchor="middle" x="836.4941" y="-1073.1012" font-family="Times,serif" font-size="14.00" fill="#000000">0&#45;&gt;80</text>
</g>
<!-- 10.0.0.255 -->
<g id="node37" class="node">
<title>10.0.0.255</title>
<ellipse fill="none" stroke="#000000" cx="645.8154" cy="-987.3012" rx="60.3893" ry="18"/>
<text text-anchor="middle" x="645.8154" y="-983.6012" font-family="Times,serif" font-size="14.00" fill="#000000">10.0.0.255</text>
</g>
<!-- 10.0.0.28&#45;&gt;10.0.0.255 -->
<g id="edge27" class="edge">
<title>10.0.0.28&#45;&gt;10.0.0.255</title>
<path fill="none" stroke="#d3d3d3" stroke-width="1.6345" d="M260.3709,-1022.8143C342.8386,-1015.2161 491.4169,-1001.5268 578.037,-993.546"/>
<polygon fill="#d3d3d3" stroke="#d3d3d3" stroke-width="1.6345" points="578.3899,-997.0284 588.0266,-992.6256 577.7476,-990.0579 578.3899,-997.0284"/>
<text text-anchor="middle" x="455.1367" y="-1012.1012" font-family="Times,serif" font-size="14.00" fill="#000000">0&#45;&gt;0</text>
</g>
<!-- 10.0.0.112 -->
<g id="node8" class="node">
<title>10.0.0.112</title>
<ellipse fill="none" stroke="#000000" cx="200.8183" cy="-1491.3012" rx="181.0387" ry="26.7407"/>
<text text-anchor="middle" x="200.8183" y="-1495.1012" font-family="Times,serif" font-size="14.00" fill="#000000">10.0.0.112</text>
<text text-anchor="middle" x="200.8183" y="-1480.1012" font-family="Times,serif" font-size="14.00" fill="#000000">Brother&#45;MFC&#45;9332CDW.fritz.box.</text>
</g>
<!-- 10.0.0.71 -->
<g id="node9" class="node">
<title>10.0.0.71</title>
<ellipse fill="none" stroke="#000000" cx="200.8183" cy="-1563.3012" rx="101.2327" ry="26.7407"/>
<text text-anchor="middle" x="200.8183" y="-1567.1012" font-family="Times,serif" font-size="14.00" fill="#000000">10.0.0.71</text>
<text text-anchor="middle" x="200.8183" y="-1552.1012" font-family="Times,serif" font-size="14.00" fill="#000000">viviquef.fritz.box.</text>
</g>
<!-- 10.0.0.35 -->
<g id="node10" class="node">
<title>10.0.0.35</title>
<ellipse fill="none" stroke="#000000" cx="1054.75" cy="-793.3012" rx="119.5021" ry="26.7407"/>
<text text-anchor="middle" x="1054.75" y="-797.1012" font-family="Times,serif" font-size="14.00" fill="#000000">10.0.0.35</text>
<text text-anchor="middle" x="1054.75" y="-782.1012" font-family="Times,serif" font-size="14.00" fill="#000000">1025&#45;skohn.fritz.box.</text>
</g>
<!-- 10.0.0.35&#45;&gt;Internet -->
<g id="edge5" class="edge">
<title>10.0.0.35&#45;&gt;Internet</title>
<path fill="none" stroke="#d3d3d3" stroke-width="1.1364" d="M1143.4108,-811.4034C1190.414,-816.2207 1247.2183,-814.0244 1290.5058,-787.3012 1337.0973,-758.5383 1359.4779,-694.5728 1368.9088,-657.4527"/>
<polygon fill="#d3d3d3" stroke="#d3d3d3" stroke-width="1.1364" points="1372.4137,-657.8441 1371.3339,-647.3045 1365.6054,-656.2171 1372.4137,-657.8441"/>
<text text-anchor="middle" x="1264.0058" y="-812.1012" font-family="Times,serif" font-size="14.00" fill="#000000">0&#45;&gt;0</text>
</g>
<!-- 10.0.0.35&#45;&gt;Internet -->
<g id="edge31" class="edge">
<title>10.0.0.35&#45;&gt;Internet</title>
<path fill="none" stroke="#0000ff" stroke-width="5.4198" d="M1161.7767,-781.2724C1213.4776,-773.8928 1268.9243,-763.1791 1290.5058,-749.3012 1325.3693,-726.8825 1349.9814,-684.4456 1363.2808,-656.5189"/>
<polygon fill="#0000ff" stroke="#0000ff" stroke-width="5.4198" points="1367.6495,-658.3693 1367.5115,-647.3027 1359.0296,-654.4124 1367.6495,-658.3693"/>
<text text-anchor="middle" x="1264.0058" y="-772.1012" font-family="Times,serif" font-size="14.00" fill="#000000">0&#45;&gt;443</text>
</g>
<!-- 10.0.0.128 -->
<g id="node11" class="node">
<title>10.0.0.128</title>
<ellipse fill="none" stroke="#000000" cx="200.8183" cy="-1635.3012" rx="111.9462" ry="26.7407"/>
<text text-anchor="middle" x="200.8183" y="-1639.1012" font-family="Times,serif" font-size="14.00" fill="#000000">10.0.0.128</text>
<text text-anchor="middle" x="200.8183" y="-1624.1012" font-family="Times,serif" font-size="14.00" fill="#000000">raspmotor.fritz.box.</text>
</g>
<!-- 10.0.0.41 -->
<g id="node12" class="node">
<title>10.0.0.41</title>
<ellipse fill="none" stroke="#000000" cx="200.8183" cy="-1707.3012" rx="164.5121" ry="26.7407"/>
<text text-anchor="middle" x="200.8183" y="-1711.1012" font-family="Times,serif" font-size="14.00" fill="#000000">10.0.0.41</text>
<text text-anchor="middle" x="200.8183" y="-1696.1012" font-family="Times,serif" font-size="14.00" fill="#000000">DESKTOP&#45;3RK1MPV.fritz.box.</text>
</g>
<!-- 10.0.0.53 -->
<g id="node13" class="node">
<title>10.0.0.53</title>
<ellipse fill="none" stroke="#000000" cx="1054.75" cy="-290.3012" rx="101.2327" ry="26.7407"/>
<text text-anchor="middle" x="1054.75" y="-294.1012" font-family="Times,serif" font-size="14.00" fill="#000000">10.0.0.53</text>
<text text-anchor="middle" x="1054.75" y="-279.1012" font-family="Times,serif" font-size="14.00" fill="#000000">retropie.fritz.box.</text>
</g>
<!-- 10.0.0.53&#45;&gt;Internet -->
<g id="edge2" class="edge">
<title>10.0.0.53&#45;&gt;Internet</title>
<path fill="none" stroke="#d3d3d3" stroke-width="1.7151" d="M1144.6604,-277.9363C1193.2009,-276.349 1251.0783,-283.3794 1290.5058,-317.3012 1334.0082,-354.7287 1361.8096,-531.5491 1371.2263,-601.102"/>
<polygon fill="#d3d3d3" stroke="#d3d3d3" stroke-width="1.7151" points="1367.7952,-601.853 1372.5794,-611.3061 1374.7344,-600.9328 1367.7952,-601.853"/>
<text text-anchor="middle" x="1264.0058" y="-321.1012" font-family="Times,serif" font-size="14.00" fill="#000000">0&#45;&gt;0</text>
</g>
<!-- 192.168.1.1 -->
<g id="node41" class="node">
<title>192.168.1.1</title>
<ellipse fill="none" stroke="#000000" cx="1374.8" cy="-230.3012" rx="66.0889" ry="18"/>
<text text-anchor="middle" x="1374.8" y="-226.6012" font-family="Times,serif" font-size="14.00" fill="#000000">192.168.1.1</text>
</g>
<!-- 10.0.0.53&#45;&gt;192.168.1.1 -->
<g id="edge39" class="edge">
<title>10.0.0.53&#45;&gt;192.168.1.1</title>
<path fill="none" stroke="#0000ff" stroke-width="4.0955" d="M1137.587,-274.7717C1191.3027,-264.7015 1260.2764,-251.771 1309.9874,-242.4516"/>
<polygon fill="#0000ff" stroke="#0000ff" stroke-width="4.0955" points="1310.8077,-245.944 1319.9761,-240.579 1309.487,-238.8995 1310.8077,-245.944"/>
<text text-anchor="middle" x="1264.0058" y="-259.1012" font-family="Times,serif" font-size="14.00" fill="#000000">0&#45;&gt;0</text>
</g>
<!-- 10.0.0.91 -->
<g id="node14" class="node">
<title>10.0.0.91</title>
<ellipse fill="none" stroke="#000000" cx="200.8183" cy="-1779.3012" rx="164.0976" ry="26.7407"/>
<text text-anchor="middle" x="200.8183" y="-1783.1012" font-family="Times,serif" font-size="14.00" fill="#000000">10.0.0.91</text>
<text text-anchor="middle" x="200.8183" y="-1768.1012" font-family="Times,serif" font-size="14.00" fill="#000000">BRN30055C9FAB71.fritz.box.</text>
</g>
<!-- 10.0.0.106 -->
<g id="node15" class="node">
<title>10.0.0.106</title>
<ellipse fill="none" stroke="#000000" cx="200.8183" cy="-695.3012" rx="141.3428" ry="26.7407"/>
<text text-anchor="middle" x="200.8183" y="-699.1012" font-family="Times,serif" font-size="14.00" fill="#000000">10.0.0.106</text>
<text text-anchor="middle" x="200.8183" y="-684.1012" font-family="Times,serif" font-size="14.00" fill="#000000">DE42LAP00016.fritz.box.</text>
</g>
<!-- 10.0.0.106&#45;&gt;10.0.0.1 -->
<g id="edge23" class="edge">
<title>10.0.0.106&#45;&gt;10.0.0.1</title>
<path fill="none" stroke="#d3d3d3" stroke-width=".5723" d="M243.0838,-669.6568C327.5265,-618.4216 516.3255,-503.8686 602.0156,-451.8765"/>
<polygon fill="#d3d3d3" stroke="#d3d3d3" stroke-width=".5723" points="603.9827,-454.7769 610.7165,-446.5973 600.3515,-448.7923 603.9827,-454.7769"/>
<text text-anchor="middle" x="455.1367" y="-564.1012" font-family="Times,serif" font-size="14.00" fill="#000000">0&#45;&gt;53</text>
</g>
<!-- 10.0.0.106&#45;&gt;Internet -->
<g id="edge37" class="edge">
<title>10.0.0.106&#45;&gt;Internet</title>
<path fill="none" stroke="#d3d3d3" stroke-width="1.9171" d="M278.8919,-717.8013C500.0603,-779.5487 1125.4581,-939.7894 1290.5058,-827.3012 1347.5469,-788.4249 1366.1599,-702.5257 1372.1017,-657.7313"/>
<polygon fill="#d3d3d3" stroke="#d3d3d3" stroke-width="1.9171" points="1375.6084,-657.8852 1373.3275,-647.5388 1368.6585,-657.0494 1375.6084,-657.8852"/>
<text text-anchor="middle" x="836.4941" y="-851.1012" font-family="Times,serif" font-size="14.00" fill="#000000">0&#45;&gt;0</text>
</g>
<!-- 10.0.0.29 -->
<g id="node16" class="node">
<title>10.0.0.29</title>
<ellipse fill="none" stroke="#000000" cx="200.8183" cy="-1851.3012" rx="127.0588" ry="26.7407"/>
<text text-anchor="middle" x="200.8183" y="-1855.1012" font-family="Times,serif" font-size="14.00" fill="#000000">10.0.0.29</text>
<text text-anchor="middle" x="200.8183" y="-1840.1012" font-family="Times,serif" font-size="14.00" fill="#000000">GearS3&#45;15F5.fritz.box.</text>
</g>
<!-- 10.0.0.36 -->
<g id="node17" class="node">
<title>10.0.0.36</title>
<ellipse fill="none" stroke="#000000" cx="200.8183" cy="-1997.3012" rx="96.7474" ry="26.7407"/>
<text text-anchor="middle" x="200.8183" y="-2001.1012" font-family="Times,serif" font-size="14.00" fill="#000000">10.0.0.36</text>
<text text-anchor="middle" x="200.8183" y="-1986.1012" font-family="Times,serif" font-size="14.00" fill="#000000">IPCAM.fritz.box.</text>
</g>
<!-- 10.0.0.104 -->
<g id="node21" class="node">
<title>10.0.0.104</title>
<ellipse fill="none" stroke="#000000" cx="645.8154" cy="-1960.3012" rx="137.3577" ry="26.7407"/>
<text text-anchor="middle" x="645.8154" y="-1964.1012" font-family="Times,serif" font-size="14.00" fill="#000000">10.0.0.104</text>
<text text-anchor="middle" x="645.8154" y="-1949.1012" font-family="Times,serif" font-size="14.00" fill="#000000">hausintelligenz.fritz.box.</text>
</g>
<!-- 10.0.0.36&#45;&gt;10.0.0.104 -->
<g id="edge18" class="edge">
<title>10.0.0.36&#45;&gt;10.0.0.104</title>
<path fill="none" stroke="#0000ff" stroke-width=".8989" d="M296.4185,-2001.7819C353.0646,-2003.1584 426.1519,-2002.7085 490.6367,-1995.3012 511.5987,-1992.8933 533.8701,-1988.8053 554.8023,-1984.2545"/>
<polygon fill="#0000ff" stroke="#0000ff" stroke-width=".8989" points="555.6373,-1987.6544 564.6362,-1982.0624 554.1142,-1980.8221 555.6373,-1987.6544"/>
<text text-anchor="middle" x="455.1367" y="-2005.1012" font-family="Times,serif" font-size="14.00" fill="#000000">0&#45;&gt;0</text>
</g>
<!-- 10.0.0.36&#45;&gt;10.0.0.104 -->
<g id="edge25" class="edge">
<title>10.0.0.36&#45;&gt;10.0.0.104</title>
<path fill="none" stroke="#0000ff" stroke-width=".6255" d="M291.7985,-1988.0555C331.0968,-1984.1951 377.6113,-1979.8037 419.6367,-1976.3012 447.4469,-1973.9834 477.1992,-1971.7224 505.6853,-1969.6644"/>
<polygon fill="#0000ff" stroke="#0000ff" stroke-width=".6255" points="505.9795,-1973.1523 515.7031,-1968.9451 505.4781,-1966.1703 505.9795,-1973.1523"/>
<text text-anchor="middle" x="455.1367" y="-1980.1012" font-family="Times,serif" font-size="14.00" fill="#000000">0&#45;&gt;21</text>
</g>
<!-- 10.0.0.79 -->
<g id="node18" class="node">
<title>10.0.0.79</title>
<ellipse fill="none" stroke="#000000" cx="1054.75" cy="-362.3012" rx="113.2743" ry="26.7407"/>
<text text-anchor="middle" x="1054.75" y="-366.1012" font-family="Times,serif" font-size="14.00" fill="#000000">10.0.0.79</text>
<text text-anchor="middle" x="1054.75" y="-351.1012" font-family="Times,serif" font-size="14.00" fill="#000000">Sandra&#45;S9.fritz.box.</text>
</g>
<!-- 10.0.0.79&#45;&gt;10.0.0.1 -->
<g id="edge21" class="edge">
<title>10.0.0.79&#45;&gt;10.0.0.1</title>
<path fill="none" stroke="#d3d3d3" stroke-width="1.6344" d="M952.8494,-350.6096C906.1284,-347.8157 850.2913,-348.1134 800.9941,-358.3012 762.3199,-366.2936 721.4228,-384.3987 691.3279,-399.7754"/>
<polygon fill="#d3d3d3" stroke="#d3d3d3" stroke-width="1.6344" points="689.6058,-396.7259 682.3493,-404.4456 692.836,-402.936 689.6058,-396.7259"/>
<text text-anchor="middle" x="836.4941" y="-362.1012" font-family="Times,serif" font-size="14.00" fill="#000000">0&#45;&gt;53</text>
</g>
<!-- 10.0.0.79&#45;&gt;Internet -->
<g id="edge20" class="edge">
<title>10.0.0.79&#45;&gt;Internet</title>
<path fill="none" stroke="#d3d3d3" stroke-width="2.4136" d="M1122.5873,-340.7884C1173.6589,-329.047 1242.7883,-323.171 1290.5058,-358.3012 1330.3589,-387.6415 1359.5702,-537.7983 1370.3018,-601.1006"/>
<polygon fill="#d3d3d3" stroke="#d3d3d3" stroke-width="2.4136" points="1366.884,-601.8845 1371.9773,-611.1747 1373.7892,-600.736 1366.884,-601.8845"/>
<text text-anchor="middle" x="1264.0058" y="-362.1012" font-family="Times,serif" font-size="14.00" fill="#000000">0&#45;&gt;0</text>
</g>
<!-- 10.0.0.79&#45;&gt;Internet -->
<g id="edge43" class="edge">
<title>10.0.0.79&#45;&gt;Internet</title>
<path fill="none" stroke="#0000ff" stroke-width="2.0926" d="M1165.7856,-367.4859C1217.1545,-372.0079 1271.0662,-380.4699 1290.5058,-396.3012 1323.1736,-422.9052 1355.1996,-545.2051 1368.441,-601.1843"/>
<polygon fill="#0000ff" stroke="#0000ff" stroke-width="2.0926" points="1365.0825,-602.1941 1370.7622,-611.1379 1371.8996,-600.6043 1365.0825,-602.1941"/>
<text text-anchor="middle" x="1264.0058" y="-400.1012" font-family="Times,serif" font-size="14.00" fill="#000000">0&#45;&gt;443</text>
</g>
<!-- 10.0.0.38 -->
<g id="node19" class="node">
<title>10.0.0.38</title>
<ellipse fill="none" stroke="#000000" cx="200.8183" cy="-2069.3012" rx="118.1737" ry="26.7407"/>
<text text-anchor="middle" x="200.8183" y="-2073.1012" font-family="Times,serif" font-size="14.00" fill="#000000">10.0.0.38</text>
<text text-anchor="middle" x="200.8183" y="-2058.1012" font-family="Times,serif" font-size="14.00" fill="#000000">Galaxy&#45;A50.fritz.box.</text>
</g>
<!-- 10.0.0.90 -->
<g id="node20" class="node">
<title>10.0.0.90</title>
<ellipse fill="none" stroke="#000000" cx="1054.75" cy="-629.3012" rx="164.5121" ry="26.7407"/>
<text text-anchor="middle" x="1054.75" y="-633.1012" font-family="Times,serif" font-size="14.00" fill="#000000">10.0.0.90</text>
<text text-anchor="middle" x="1054.75" y="-618.1012" font-family="Times,serif" font-size="14.00" fill="#000000">DESKTOP&#45;H8BV82R.fritz.box.</text>
</g>
<!-- 10.0.0.90&#45;&gt;Internet -->
<g id="edge1" class="edge">
<title>10.0.0.90&#45;&gt;Internet</title>
<path fill="none" stroke="#d3d3d3" stroke-width="8.7115" d="M1219.9312,-629.3012C1254.0852,-629.3012 1287.9257,-629.3012 1315.2209,-629.3012"/>
<polygon fill="#d3d3d3" stroke="#d3d3d3" stroke-width="8.7115" points="1315.3487,-636.9239 1325.3486,-629.3012 1315.3486,-621.6787 1315.3487,-636.9239"/>
<text text-anchor="middle" x="1264.0058" y="-633.1012" font-family="Times,serif" font-size="14.00" fill="#000000">0&#45;&gt;0</text>
</g>
<!-- 10.0.0.37 -->
<g id="node38" class="node">
<title>10.0.0.37</title>
<ellipse fill="none" stroke="#000000" cx="1054.75" cy="-1960.3012" rx="54.6905" ry="18"/>
<text text-anchor="middle" x="1054.75" y="-1956.6012" font-family="Times,serif" font-size="14.00" fill="#000000">10.0.0.37</text>
</g>
<!-- 10.0.0.104&#45;&gt;10.0.0.37 -->
<g id="edge14" class="edge">
<title>10.0.0.104&#45;&gt;10.0.0.37</title>
<path fill="none" stroke="#0000ff" stroke-width="4.8256" d="M783.1223,-1960.3012C853.0216,-1960.3012 934.701,-1960.3012 990.0999,-1960.3012"/>
<polygon fill="#0000ff" stroke="#0000ff" stroke-width="4.8256" points="990.1295,-1964.5237 1000.1294,-1960.3012 990.1294,-1956.0788 990.1295,-1964.5237"/>
<text text-anchor="middle" x="836.4941" y="-1964.1012" font-family="Times,serif" font-size="14.00" fill="#000000">0&#45;&gt;80</text>
</g>
<!-- 10.0.0.10 -->
<g id="node22" class="node">
<title>10.0.0.10</title>
<ellipse fill="none" stroke="#000000" cx="200.8183" cy="-2141.3012" rx="107.4605" ry="26.7407"/>
<text text-anchor="middle" x="200.8183" y="-2145.1012" font-family="Times,serif" font-size="14.00" fill="#000000">10.0.0.10</text>
<text text-anchor="middle" x="200.8183" y="-2130.1012" font-family="Times,serif" font-size="14.00" fill="#000000">ALL4076.fritz.box.</text>
</g>
<!-- 10.0.0.65 -->
<g id="node23" class="node">
<title>10.0.0.65</title>
<ellipse fill="none" stroke="#000000" cx="200.8183" cy="-2213.3012" rx="200.6368" ry="26.7407"/>
<text text-anchor="middle" x="200.8183" y="-2217.1012" font-family="Times,serif" font-size="14.00" fill="#000000">10.0.0.65</text>
<text text-anchor="middle" x="200.8183" y="-2202.1012" font-family="Times,serif" font-size="14.00" fill="#000000">android&#45;3ad55ba14fd95d57.fritz.box.</text>
</g>
<!-- 10.0.0.20 -->
<g id="node24" class="node">
<title>10.0.0.20</title>
<ellipse fill="none" stroke="#000000" cx="1054.75" cy="-557.3012" rx="119.5021" ry="26.7407"/>
<text text-anchor="middle" x="1054.75" y="-561.1012" font-family="Times,serif" font-size="14.00" fill="#000000">10.0.0.20</text>
<text text-anchor="middle" x="1054.75" y="-546.1012" font-family="Times,serif" font-size="14.00" fill="#000000">1025&#45;skohn.fritz.box.</text>
</g>
<!-- 10.0.0.20&#45;&gt;Internet -->
<g id="edge6" class="edge">
<title>10.0.0.20&#45;&gt;Internet</title>
<path fill="none" stroke="#d3d3d3" stroke-width=".8345" d="M1141.1578,-575.966C1166.4258,-581.4825 1194.0845,-587.5775 1219.5058,-593.3012 1254.1943,-601.1114 1293.1783,-610.1494 1323.4095,-617.2158"/>
<polygon fill="#d3d3d3" stroke="#d3d3d3" stroke-width=".8345" points="1322.773,-620.6613 1333.3074,-619.532 1324.368,-613.8455 1322.773,-620.6613"/>
<text text-anchor="middle" x="1264.0058" y="-613.1012" font-family="Times,serif" font-size="14.00" fill="#000000">0&#45;&gt;0</text>
</g>
<!-- 10.0.0.57 -->
<g id="node25" class="node">
<title>10.0.0.57</title>
<ellipse fill="none" stroke="#000000" cx="200.8183" cy="-2285.3012" rx="156.0415" ry="26.7407"/>
<text text-anchor="middle" x="200.8183" y="-2289.1012" font-family="Times,serif" font-size="14.00" fill="#000000">10.0.0.57</text>
<text text-anchor="middle" x="200.8183" y="-2274.1012" font-family="Times,serif" font-size="14.00" fill="#000000">thermomix&#45;004c04.fritz.box.</text>
</g>
<!-- 10.0.0.32 -->
<g id="node26" class="node">
<title>10.0.0.32</title>
<ellipse fill="none" stroke="#000000" cx="200.8183" cy="-1923.3012" rx="96.7474" ry="26.7407"/>
<text text-anchor="middle" x="200.8183" y="-1927.1012" font-family="Times,serif" font-size="14.00" fill="#000000">10.0.0.32</text>
<text text-anchor="middle" x="200.8183" y="-1912.1012" font-family="Times,serif" font-size="14.00" fill="#000000">IPCAM.fritz.box.</text>
</g>
<!-- 10.0.0.32&#45;&gt;10.0.0.104 -->
<g id="edge4" class="edge">
<title>10.0.0.32&#45;&gt;10.0.0.104</title>
<path fill="none" stroke="#0000ff" stroke-width=".9879" d="M296.2001,-1928.3508C352.7711,-1931.6457 425.8561,-1936.4243 490.6367,-1942.3012 499.8582,-1943.1378 509.38,-1944.0713 518.9581,-1945.0612"/>
<polygon fill="#0000ff" stroke="#0000ff" stroke-width=".9879" points="518.6384,-1948.5468 528.9495,-1946.1113 519.3702,-1941.5851 518.6384,-1948.5468"/>
<text text-anchor="middle" x="455.1367" y="-1946.1012" font-family="Times,serif" font-size="14.00" fill="#000000">0&#45;&gt;0</text>
</g>
<!-- 10.0.0.32&#45;&gt;10.0.0.104 -->
<g id="edge10" class="edge">
<title>10.0.0.32&#45;&gt;10.0.0.104</title>
<path fill="none" stroke="#0000ff" stroke-width=".6449" d="M292.9152,-1914.7366C350.0774,-1911.1445 424.9141,-1909.5643 490.6367,-1918.3012 515.561,-1921.6145 542.1603,-1927.7971 566.1691,-1934.4192"/>
<polygon fill="#0000ff" stroke="#0000ff" stroke-width=".6449" points="565.3593,-1937.8273 575.934,-1937.175 567.2606,-1931.0904 565.3593,-1937.8273"/>
<text text-anchor="middle" x="455.1367" y="-1922.1012" font-family="Times,serif" font-size="14.00" fill="#000000">0&#45;&gt;21</text>
</g>
<!-- 10.0.0.1&#45;&gt;10.0.0.121 -->
<g id="edge36" class="edge">
<title>10.0.0.1&#45;&gt;10.0.0.121</title>
<path fill="none" stroke="#d3d3d3" stroke-width="7.7156" d="M700.5418,-433.3308C765.6599,-442.8851 875.633,-459.0206 955.7983,-470.7827"/>
<polygon fill="#d3d3d3" stroke="#d3d3d3" stroke-width="7.7156" points="955.0407,-477.4949 965.9149,-472.2671 957.0009,-464.1356 955.0407,-477.4949"/>
<text text-anchor="middle" x="836.4941" y="-461.1012" font-family="Times,serif" font-size="14.00" fill="#000000">0&#45;&gt;0</text>
</g>
<!-- 10.0.0.1&#45;&gt;10.0.0.53 -->
<g id="edge28" class="edge">
<title>10.0.0.1&#45;&gt;10.0.0.53</title>
<path fill="none" stroke="#d3d3d3" stroke-width="7.7181" d="M675.8074,-402.2808C705.8174,-380.4607 754.1379,-348.5333 800.9941,-331.3012 847.3308,-314.2601 901.0095,-304.2907 947.0305,-298.4634"/>
<polygon fill="#d3d3d3" stroke="#d3d3d3" stroke-width="7.7181" points="947.9204,-305.1584 957.0313,-297.2465 946.2887,-291.7506 947.9204,-305.1584"/>
<text text-anchor="middle" x="836.4941" y="-335.1012" font-family="Times,serif" font-size="14.00" fill="#000000">0&#45;&gt;0</text>
</g>
<!-- 10.0.0.1&#45;&gt;10.0.0.79 -->
<g id="edge40" class="edge">
<title>10.0.0.1&#45;&gt;10.0.0.79</title>
<path fill="none" stroke="#d3d3d3" stroke-width=".6913" d="M698.8445,-414.6905C728.7719,-408.8785 766.8965,-401.7679 800.9941,-396.3012 847.7126,-388.811 899.4538,-381.6712 943.9628,-375.8855"/>
<polygon fill="#d3d3d3" stroke="#d3d3d3" stroke-width=".6913" points="944.4635,-379.35 953.9321,-374.5964 943.5658,-372.4077 944.4635,-379.35"/>
<text text-anchor="middle" x="836.4941" y="-400.1012" font-family="Times,serif" font-size="14.00" fill="#000000">0&#45;&gt;0</text>
</g>
<!-- 10.0.0.1&#45;&gt;10.0.0.20 -->
<g id="edge35" class="edge">
<title>10.0.0.1&#45;&gt;10.0.0.20</title>
<path fill="none" stroke="#0000ff" stroke-width=".5325" d="M687.4406,-444.027C735.4736,-465.0775 817.2072,-499.195 889.9941,-521.3012 910.1882,-527.4344 932.0728,-532.9679 953.0947,-537.7532"/>
<polygon fill="#0000ff" stroke="#0000ff" stroke-width=".5325" points="952.4846,-541.2032 963.0074,-539.9699 954.0123,-534.3719 952.4846,-541.2032"/>
<text text-anchor="middle" x="836.4941" y="-519.1012" font-family="Times,serif" font-size="14.00" fill="#000000">0&#45;&gt;80</text>
</g>
<!-- 10.0.0.1&#45;&gt;Internet -->
<g id="edge16" class="edge">
<title>10.0.0.1&#45;&gt;Internet</title>
<path fill="none" stroke="#d3d3d3" stroke-width="7.3179" d="M703.0658,-423.4454C839.1619,-419.4243 1174.0844,-411.968 1219.5058,-434.3012 1292.2325,-470.0601 1341.6554,-557.8432 1362.9534,-602.4073"/>
<polygon fill="#d3d3d3" stroke="#d3d3d3" stroke-width="7.3179" points="1357.1555,-605.1251 1367.1855,-611.4814 1368.7617,-599.712 1357.1555,-605.1251"/>
<text text-anchor="middle" x="1054.75" y="-438.1012" font-family="Times,serif" font-size="14.00" fill="#000000">0&#45;&gt;0</text>
</g>
<!-- 10.0.0.50 -->
<g id="node28" class="node">
<title>10.0.0.50</title>
<ellipse fill="none" stroke="#000000" cx="200.8183" cy="-892.3012" rx="131.5437" ry="26.7407"/>
<text text-anchor="middle" x="200.8183" y="-896.1012" font-family="Times,serif" font-size="14.00" fill="#000000">10.0.0.50</text>
<text text-anchor="middle" x="200.8183" y="-881.1012" font-family="Times,serif" font-size="14.00" fill="#000000">LAPTOP&#45;1210.fritz.box.</text>
</g>
<!-- 10.0.0.50&#45;&gt;10.0.0.1 -->
<g id="edge11" class="edge">
<title>10.0.0.50&#45;&gt;10.0.0.1</title>
<path fill="none" stroke="#d3d3d3" stroke-width="3.4156" d="M238.023,-866.3383C279.9452,-836.2332 349.0871,-783.9711 401.6367,-731.3012 491.8155,-640.9158 581.1315,-518.4067 622.2911,-459.5906"/>
<polygon fill="#d3d3d3" stroke="#d3d3d3" stroke-width="3.4156" points="625.3974,-461.2548 628.2428,-451.0491 619.6541,-457.2528 625.3974,-461.2548"/>
<text text-anchor="middle" x="455.1367" y="-713.1012" font-family="Times,serif" font-size="14.00" fill="#000000">0&#45;&gt;53</text>
</g>
<!-- 10.0.0.50&#45;&gt;Internet -->
<g id="edge30" class="edge">
<title>10.0.0.50&#45;&gt;Internet</title>
<path fill="none" stroke="#d3d3d3" stroke-width="2.0652" d="M332.7195,-891.4899C588.4574,-889.6559 1134.1773,-884.3741 1219.5058,-872.3012 1251.8496,-867.7249 1266.2991,-875.235 1290.5058,-853.3012 1348.2093,-801.0159 1366.602,-705.2427 1372.3158,-657.6702"/>
<polygon fill="#d3d3d3" stroke="#d3d3d3" stroke-width="2.0652" points="1375.8229,-657.7956 1373.4328,-647.4739 1368.8645,-657.0333 1375.8229,-657.7956"/>
<text text-anchor="middle" x="836.4941" y="-891.1012" font-family="Times,serif" font-size="14.00" fill="#000000">0&#45;&gt;0</text>
</g>
<!-- 10.0.0.50&#45;&gt;Internet -->
<g id="edge32" class="edge">
<title>10.0.0.50&#45;&gt;Internet</title>
<path fill="none" stroke="#0000ff" stroke-width=".6661" d="M322.2275,-902.654C513.8525,-916.6986 897.7334,-935.5169 1219.5058,-893.3012 1251.6776,-889.0803 1266.5108,-898.1433 1290.5058,-876.3012 1323.6268,-846.1518 1355.8628,-715.2656 1368.8284,-657.2101"/>
<polygon fill="#0000ff" stroke="#0000ff" stroke-width=".6661" points="1372.2874,-657.777 1371.021,-647.2581 1365.4513,-656.2709 1372.2874,-657.777"/>
<text text-anchor="middle" x="836.4941" y="-923.1012" font-family="Times,serif" font-size="14.00" fill="#000000">0&#45;&gt;443</text>
</g>
<!-- 10.0.0.50&#45;&gt;10.0.0.255 -->
<g id="edge3" class="edge">
<title>10.0.0.50&#45;&gt;10.0.0.255</title>
<path fill="none" stroke="#d3d3d3" stroke-width="1.3947" d="M313.3973,-906.2056C367.3801,-913.8794 432.7463,-924.6468 490.6367,-938.3012 527.1105,-946.9041 567.4481,-959.747 597.8534,-970.1265"/>
<polygon fill="#d3d3d3" stroke="#d3d3d3" stroke-width="1.3947" points="596.764,-973.453 607.3587,-973.4014 599.0442,-966.8348 596.764,-973.453"/>
<text text-anchor="middle" x="455.1367" y="-942.1012" font-family="Times,serif" font-size="14.00" fill="#000000">137&#45;&gt;137</text>
</g>
<!-- 10.0.0.47 -->
<g id="node29" class="node">
<title>10.0.0.47</title>
<ellipse fill="none" stroke="#000000" cx="200.8183" cy="-2357.3012" rx="140.9288" ry="26.7407"/>
<text text-anchor="middle" x="200.8183" y="-2361.1012" font-family="Times,serif" font-size="14.00" fill="#000000">10.0.0.47</text>
<text text-anchor="middle" x="200.8183" y="-2346.1012" font-family="Times,serif" font-size="14.00" fill="#000000">Galaxy&#45;A8&#45;2018.fritz.box.</text>
</g>
<!-- 10.0.0.39 -->
<g id="node30" class="node">
<title>10.0.0.39</title>
<ellipse fill="none" stroke="#000000" cx="200.8183" cy="-2429.3012" rx="113.2743" ry="26.7407"/>
<text text-anchor="middle" x="200.8183" y="-2433.1012" font-family="Times,serif" font-size="14.00" fill="#000000">10.0.0.39</text>
<text text-anchor="middle" x="200.8183" y="-2418.1012" font-family="Times,serif" font-size="14.00" fill="#000000">A50&#45;Philip.fritz.box.</text>
</g>
<!-- 10.0.0.27 -->
<g id="node31" class="node">
<title>10.0.0.27</title>
<ellipse fill="none" stroke="#000000" cx="200.8183" cy="-425.3012" rx="161.441" ry="26.7407"/>
<text text-anchor="middle" x="200.8183" y="-429.1012" font-family="Times,serif" font-size="14.00" fill="#000000">10.0.0.27</text>
<text text-anchor="middle" x="200.8183" y="-414.1012" font-family="Times,serif" font-size="14.00" fill="#000000">Samsung&#45;Galaxy&#45;S7.fritz.box.</text>
</g>
<!-- 10.0.0.27&#45;&gt;10.0.0.1 -->
<g id="edge13" class="edge">
<title>10.0.0.27&#45;&gt;10.0.0.1</title>
<path fill="none" stroke="#d3d3d3" stroke-width="1.2422" d="M362.1016,-425.3012C436.6008,-425.3012 521.0287,-425.3012 578.2739,-425.3012"/>
<polygon fill="#d3d3d3" stroke="#d3d3d3" stroke-width="1.2422" points="578.2832,-428.8013 588.2831,-425.3012 578.2831,-421.8013 578.2832,-428.8013"/>
<text text-anchor="middle" x="455.1367" y="-429.1012" font-family="Times,serif" font-size="14.00" fill="#000000">0&#45;&gt;0</text>
</g>
<!-- 10.0.0.27&#45;&gt;10.0.0.1 -->
<g id="edge26" class="edge">
<title>10.0.0.27&#45;&gt;10.0.0.1</title>
<path fill="none" stroke="#d3d3d3" stroke-width=".5152" d="M332.0908,-409.6652C381.7556,-405.5975 438.7966,-403.1394 490.6367,-406.3012 520.4353,-408.1187 553.2743,-411.8818 581.0401,-415.5833"/>
<polygon fill="#d3d3d3" stroke="#d3d3d3" stroke-width=".5152" points="580.6448,-419.0616 591.0251,-416.9404 581.5876,-412.1254 580.6448,-419.0616"/>
<text text-anchor="middle" x="455.1367" y="-410.1012" font-family="Times,serif" font-size="14.00" fill="#000000">0&#45;&gt;53</text>
</g>
<!-- 10.0.0.27&#45;&gt;Internet -->
<g id="edge8" class="edge">
<title>10.0.0.27&#45;&gt;Internet</title>
<path fill="none" stroke="#0000ff" stroke-width=".8159" d="M230.6926,-451.7682C274.5443,-492.2231 356.0607,-573.7919 401.6367,-659.3012 415.7361,-685.7544 395.779,-706.1524 419.6367,-724.3012 424.7895,-728.221 1066.5215,-759.1119 1219.5058,-719.3012 1267.8134,-706.7302 1316.4698,-674.6527 1346.1241,-652.4024"/>
<polygon fill="#0000ff" stroke="#0000ff" stroke-width=".8159" points="1348.5123,-654.9823 1354.3317,-646.1288 1344.2613,-649.4209 1348.5123,-654.9823"/>
<text text-anchor="middle" x="836.4941" y="-744.1012" font-family="Times,serif" font-size="14.00" fill="#000000">0&#45;&gt;443</text>
</g>
<!-- 10.0.0.27&#45;&gt;Internet -->
<g id="edge42" class="edge">
<title>10.0.0.27&#45;&gt;Internet</title>
<path fill="none" stroke="#d3d3d3" stroke-width=".9338" d="M243.9985,-399.329C286.9823,-374.7135 355.6056,-338.7031 419.6367,-319.3012 590.3083,-267.5862 1045.1532,-216.8257 1219.5058,-254.3012 1253.3455,-261.5747 1268.3626,-259.6985 1290.5058,-286.3012 1330.8983,-334.8284 1360.8512,-527.2305 1371.0229,-600.6383"/>
<polygon fill="#d3d3d3" stroke="#d3d3d3" stroke-width=".9338" points="1367.6123,-601.5319 1372.4318,-610.9671 1374.5481,-600.5858 1367.6123,-601.5319"/>
<text text-anchor="middle" x="836.4941" y="-259.1012" font-family="Times,serif" font-size="14.00" fill="#000000">0&#45;&gt;0</text>
</g>
<!-- 10.0.0.77 -->
<g id="node32" class="node">
<title>10.0.0.77</title>
<ellipse fill="none" stroke="#000000" cx="200.8183" cy="-2501.3012" rx="130.6298" ry="26.7407"/>
<text text-anchor="middle" x="200.8183" y="-2505.1012" font-family="Times,serif" font-size="14.00" fill="#000000">10.0.0.77</text>
<text text-anchor="middle" x="200.8183" y="-2490.1012" font-family="Times,serif" font-size="14.00" fill="#000000">SNMP&#45;Reader.fritz.box.</text>
</g>
<!-- 10.0.0.26 -->
<g id="node33" class="node">
<title>10.0.0.26</title>
<ellipse fill="none" stroke="#000000" cx="200.8183" cy="-220.3012" rx="185.9382" ry="26.7407"/>
<text text-anchor="middle" x="200.8183" y="-224.1012" font-family="Times,serif" font-size="14.00" fill="#000000">10.0.0.26</text>
<text text-anchor="middle" x="200.8183" y="-209.1012" font-family="Times,serif" font-size="14.00" fill="#000000">Holgers&#45;Ackerschnacker.fritz.box.</text>
</g>
<!-- 10.0.0.26&#45;&gt;10.0.0.1 -->
<g id="edge7" class="edge">
<title>10.0.0.26&#45;&gt;10.0.0.1</title>
<path fill="none" stroke="#d3d3d3" stroke-width="1.1339" d="M318.0549,-241.2078C372.476,-253.7457 436.8714,-272.7386 490.6367,-300.3012 538.2536,-324.7119 584.9803,-365.2579 614.5091,-393.5294"/>
<polygon fill="#d3d3d3" stroke="#d3d3d3" stroke-width="1.1339" points="612.3859,-396.3459 622.0017,-400.7942 617.2587,-391.3203 612.3859,-396.3459"/>
<text text-anchor="middle" x="455.1367" y="-304.1012" font-family="Times,serif" font-size="14.00" fill="#000000">0&#45;&gt;53</text>
</g>
<!-- 10.0.0.26&#45;&gt;10.0.0.1 -->
<g id="edge9" class="edge">
<title>10.0.0.26&#45;&gt;10.0.0.1</title>
<path fill="none" stroke="#d3d3d3" stroke-width=".7844" d="M256.7269,-246.057C344.0497,-286.2846 511.4748,-363.4136 595.337,-402.047"/>
<polygon fill="#d3d3d3" stroke="#d3d3d3" stroke-width=".7844" points="594.1043,-405.3326 604.6513,-406.3378 597.0332,-398.9748 594.1043,-405.3326"/>
<text text-anchor="middle" x="455.1367" y="-357.1012" font-family="Times,serif" font-size="14.00" fill="#000000">0&#45;&gt;0</text>
</g>
<!-- 10.0.0.26&#45;&gt;Internet -->
<g id="edge19" class="edge">
<title>10.0.0.26&#45;&gt;Internet</title>
<path fill="none" stroke="#0000ff" stroke-width="1.0852" d="M377.8406,-211.9334C668.9415,-199.9417 1223.3496,-185.2214 1290.5058,-243.3012 1344.8883,-290.3336 1366.7307,-519.1895 1372.8583,-600.5364"/>
<polygon fill="#0000ff" stroke="#0000ff" stroke-width="1.0852" points="1369.4033,-601.2822 1373.6204,-611.0015 1376.3848,-600.7737 1369.4033,-601.2822"/>
<text text-anchor="middle" x="836.4941" y="-205.1012" font-family="Times,serif" font-size="14.00" fill="#000000">0&#45;&gt;443</text>
</g>
<!-- 10.0.0.26&#45;&gt;Internet -->
<g id="edge34" class="edge">
<title>10.0.0.26&#45;&gt;Internet</title>
<path fill="none" stroke="#d3d3d3" stroke-width=".7871" d="M319.6684,-199.5249C575.3841,-157.9572 1164.844,-79.993 1290.5058,-220.3012 1316.2755,-249.0744 1357.5562,-513.3791 1370.6648,-601.1315"/>
<polygon fill="#d3d3d3" stroke="#d3d3d3" stroke-width=".7871" points="1367.2231,-601.7833 1372.1548,-611.1604 1374.1471,-600.7546 1367.2231,-601.7833"/>
<text text-anchor="middle" x="836.4941" y="-148.1012" font-family="Times,serif" font-size="14.00" fill="#000000">0&#45;&gt;0</text>
</g>
<!-- 10.0.0.45 -->
<g id="node34" class="node">
<title>10.0.0.45</title>
<ellipse fill="none" stroke="#000000" cx="200.8183" cy="-2573.3012" rx="158.2839" ry="26.7407"/>
<text text-anchor="middle" x="200.8183" y="-2577.1012" font-family="Times,serif" font-size="14.00" fill="#000000">10.0.0.45</text>
<text text-anchor="middle" x="200.8183" y="-2562.1012" font-family="Times,serif" font-size="14.00" fill="#000000">LAPTOP&#45;JB3S027G.fritz.box.</text>
</g>
<!-- 10.0.0.110 -->
<g id="node35" class="node">
<title>10.0.0.110</title>
<ellipse fill="none" stroke="#000000" cx="200.8183" cy="-96.3012" rx="141.3428" ry="26.7407"/>
<text text-anchor="middle" x="200.8183" y="-100.1012" font-family="Times,serif" font-size="14.00" fill="#000000">10.0.0.110</text>
<text text-anchor="middle" x="200.8183" y="-85.1012" font-family="Times,serif" font-size="14.00" fill="#000000">DE42LAP00016.fritz.box.</text>
</g>
<!-- 10.0.0.110&#45;&gt;10.0.0.1 -->
<g id="edge45" class="edge">
<title>10.0.0.110&#45;&gt;10.0.0.1</title>
<path fill="none" stroke="#d3d3d3" stroke-width="6.3741" d="M266.1208,-120.1706C306.4023,-136.0359 358.4439,-158.6302 401.6367,-184.3012 495.4878,-240.0803 580.1237,-339.5337 620.6273,-391.5244"/>
<polygon fill="#d3d3d3" stroke="#d3d3d3" stroke-width="6.3741" points="616.4505,-395.2412 626.9755,-399.7504 625.2814,-388.4262 616.4505,-395.2412"/>
<text text-anchor="middle" x="455.1367" y="-250.1012" font-family="Times,serif" font-size="14.00" fill="#000000">0&#45;&gt;53</text>
</g>
<!-- 10.0.0.110&#45;&gt;Internet -->
<g id="edge12" class="edge">
<title>10.0.0.110&#45;&gt;Internet</title>
<path fill="none" stroke="#d3d3d3" stroke-width="10" d="M333.5599,-87.0174C608.9211,-69.1576 1222.397,-37.1594 1290.5058,-101.3012 1315.9103,-125.2259 1303.4422,-222.7738 1308.5058,-257.3012 1327.4082,-386.1908 1356.8748,-538.9548 1369.1429,-601.0022"/>
<polygon fill="#d3d3d3" stroke="#d3d3d3" stroke-width="10" points="1360.6319,-603.0666 1371.1607,-611.1726 1377.7973,-599.6609 1360.6319,-603.0666"/>
<text text-anchor="middle" x="836.4941" y="-69.1012" font-family="Times,serif" font-size="14.00" fill="#000000">0&#45;&gt;0</text>
</g>
<!-- 10.0.0.110&#45;&gt;Internet -->
<g id="edge17" class="edge">
<title>10.0.0.110&#45;&gt;Internet</title>
<path fill="none" stroke="#d3d3d3" stroke-width=".72" d="M298.704,-76.7601C542.0691,-30.8161 1164.0059,69.549 1290.5058,-77.3012 1316.7424,-107.7584 1302.9754,-217.4839 1308.5058,-257.3012 1326.4276,-386.3308 1356.4349,-539.0176 1368.9949,-601.0234"/>
<polygon fill="#d3d3d3" stroke="#d3d3d3" stroke-width=".72" points="1365.6391,-602.085 1371.0622,-611.1866 1372.4986,-600.6896 1365.6391,-602.085"/>
<text text-anchor="middle" x="836.4941" y="-11.1012" font-family="Times,serif" font-size="14.00" fill="#000000">137&#45;&gt;137</text>
</g>
<!-- 10.0.0.110&#45;&gt;Internet -->
<g id="edge24" class="edge">
<title>10.0.0.110&#45;&gt;Internet</title>
<path fill="none" stroke="#0000ff" stroke-width=".8798" d="M342.2409,-97.772C602.4745,-101.0793 1138.1454,-110.9029 1219.5058,-136.3012 1255.1683,-147.434 1269.5364,-150.3814 1290.5058,-181.3012 1296.5202,-190.1695 1352.716,-504.8271 1369.8588,-601.4012"/>
<polygon fill="#0000ff" stroke="#0000ff" stroke-width=".8798" points="1366.4245,-602.0802 1371.6173,-611.3151 1373.3169,-600.8575 1366.4245,-602.0802"/>
<text text-anchor="middle" x="836.4941" y="-114.1012" font-family="Times,serif" font-size="14.00" fill="#000000">0&#45;&gt;443</text>
</g>
<!-- 10.0.0.30 -->
<g id="node39" class="node">
<title>10.0.0.30</title>
<ellipse fill="none" stroke="#000000" cx="1054.75" cy="-1215.3012" rx="54.6905" ry="18"/>
<text text-anchor="middle" x="1054.75" y="-1211.6012" font-family="Times,serif" font-size="14.00" fill="#000000">10.0.0.30</text>
</g>
<!-- 10.0.0.30&#45;&gt;Internet -->
<g id="edge22" class="edge">
<title>10.0.0.30&#45;&gt;Internet</title>
<path fill="none" stroke="#d3d3d3" stroke-width=".8955" d="M1103.074,-1223.9898C1156.5039,-1230.5658 1241.4863,-1231.5383 1290.5058,-1183.3012 1328.5518,-1145.8624 1363.3157,-765.4667 1372.4639,-657.6468"/>
<polygon fill="#d3d3d3" stroke="#d3d3d3" stroke-width=".8955" points="1375.9645,-657.7857 1373.3149,-647.5275 1368.9891,-657.199 1375.9645,-657.7857"/>
<text text-anchor="middle" x="1264.0058" y="-1217.1012" font-family="Times,serif" font-size="14.00" fill="#000000">0&#45;&gt;0</text>
</g>
<!-- 10.0.0.25 -->
<g id="node40" class="node">
<title>10.0.0.25</title>
<ellipse fill="none" stroke="#000000" cx="1054.75" cy="-692.3012" rx="54.6905" ry="18"/>
<text text-anchor="middle" x="1054.75" y="-688.6012" font-family="Times,serif" font-size="14.00" fill="#000000">10.0.0.25</text>
</g>
<!-- 10.0.0.25&#45;&gt;Internet -->
<g id="edge33" class="edge">
<title>10.0.0.25&#45;&gt;Internet</title>
<path fill="none" stroke="#0000ff" stroke-width=".5521" d="M1104.6495,-684.992C1137.4007,-679.9812 1181.1186,-672.8876 1219.5058,-665.3012 1254.6319,-658.3592 1293.9167,-649.2394 1324.1856,-641.916"/>
<polygon fill="#0000ff" stroke="#0000ff" stroke-width=".5521" points="1325.1971,-645.2721 1334.0861,-639.507 1323.542,-638.4705 1325.1971,-645.2721"/>
<text text-anchor="middle" x="1264.0058" y="-665.1012" font-family="Times,serif" font-size="14.00" fill="#000000">0&#45;&gt;443</text>
</g>
</g>
</svg>
