<?xml version="1.0" encoding="UTF-8" standalone="no"?>
<!DOCTYPE svg PUBLIC "-//W3C//DTD SVG 1.1//EN"
 "http://www.w3.org/Graphics/SVG/1.1/DTD/svg11.dtd">
<!-- Generated by graphviz version 2.40.1 (20161225.0304)
 -->
<!-- Title: html Pages: 1 -->
<svg width="972pt" height="1755pt"
 viewBox="0.00 0.00 971.69 1754.65" xmlns="http://www.w3.org/2000/svg" xmlns:xlink="http://www.w3.org/1999/xlink">
<g id="graph0" class="graph" transform="scale(1 1) rotate(0) translate(4 1750.6503)">
<title>html</title>
<polygon fill="#ffffff" stroke="transparent" points="-4,4 -4,-1750.6503 967.6897,-1750.6503 967.6897,4 -4,4"/>
<text text-anchor="middle" x="481.8449" y="-1731.4503" font-family="Times,serif" font-size="14.00" fill="#000000">/var/www/html/files/tmp2.log</text>
<!-- Internet -->
<g id="node1" class="node">
<title>Internet</title>
<ellipse fill="#add8e6" stroke="#000000" cx="546.5" cy="-494.6503" rx="49.2915" ry="18"/>
<text text-anchor="middle" x="546.5" y="-490.9503" font-family="Times,serif" font-size="14.00" fill="#000000">Internet</text>
</g>
<!-- Broadcast -->
<g id="node2" class="node">
<title>Broadcast</title>
<ellipse fill="#a020f0" stroke="#000000" cx="905.8449" cy="-373.6503" rx="57.6901" ry="18"/>
<text text-anchor="middle" x="905.8449" y="-369.9503" font-family="Times,serif" font-size="14.00" fill="#000000">Broadcast</text>
</g>
<!-- 10.0.0.110 -->
<g id="node3" class="node">
<title>10.0.0.110</title>
<g id="a_node3"><a xlink:href="index.php?section=ipanalyze-10.0.0.110" xlink:title="10.0.0.110\nDE42LAP00016.fritz.box." target="_parent">
<polygon fill="#d3d3d3" stroke="#000000" points="231.5,-995.6503 31.5,-995.6503 31.5,-957.6503 231.5,-957.6503 231.5,-995.6503"/>
<text text-anchor="middle" x="131.5" y="-980.4503" font-family="Times,serif" font-size="14.00" fill="#000000">10.0.0.110</text>
<text text-anchor="middle" x="131.5" y="-965.4503" font-family="Times,serif" font-size="14.00" fill="#000000">DE42LAP00016.fritz.box.</text>
</a>
</g>
</g>
<!-- 10.0.0.110&#45;&gt;Internet -->
<g id="edge11" class="edge">
<title>10.0.0.110&#45;&gt;Internet</title>
<path fill="none" stroke="#00ff00" stroke-width="2.0906" d="M154.2425,-957.6196C182.6572,-934.4341 233.3561,-894.9819 281,-867.6503 310.8668,-850.5168 332.3285,-864.91 352,-836.6503 392.057,-779.1053 322.8244,-573.52 370,-521.6503 399.8358,-488.8457 451.4379,-484.2719 491.1653,-486.622"/>
<polygon fill="#00ff00" stroke="#00ff00" stroke-width="2.0906" points="491.0138,-490.1204 501.2478,-487.3791 491.538,-483.1401 491.0138,-490.1204"/>
<text text-anchor="middle" x="316.5" y="-886.4503" font-family="Times,serif" font-size="14.00" fill="#000000">0&#45;&gt;443</text>
<text text-anchor="middle" x="316.5" y="-871.4503" font-family="Times,serif" font-size="14.00" fill="#000000">60</text>
</g>
<!-- 10.0.0.110&#45;&gt;Internet -->
<g id="edge25" class="edge">
<title>10.0.0.110&#45;&gt;Internet</title>
<path fill="none" stroke="#d3d3d3" stroke-width=".9756" d="M160.5723,-957.4951C192.0474,-934.9293 240.727,-894.2864 263,-845.6503 286.2837,-794.8071 250.0477,-641.2241 281,-594.6503 300.5829,-565.184 327.1896,-583.8732 352,-558.6503 364.8239,-545.6132 355.2765,-532.4965 370,-521.6503 403.6494,-496.8622 450.8108,-490.6948 487.9186,-490.4101"/>
<polygon fill="#d3d3d3" stroke="#d3d3d3" stroke-width=".9756" points="488.0765,-493.9111 498.0987,-490.4752 488.1213,-486.9113 488.0765,-493.9111"/>
<text text-anchor="middle" x="316.5" y="-613.4503" font-family="Times,serif" font-size="14.00" fill="#000000">0&#45;&gt;443</text>
<text text-anchor="middle" x="316.5" y="-598.4503" font-family="Times,serif" font-size="14.00" fill="#000000">28</text>
</g>
<!-- 10.0.0.110&#45;&gt;Broadcast -->
<g id="edge12" class="edge">
<title>10.0.0.110&#45;&gt;Broadcast</title>
<path fill="none" stroke="#d3d3d3" stroke-width="6.6899" d="M231.5549,-988.5567C242.7765,-992.558 253.5509,-997.8004 263,-1004.6503 275.8991,-1014.0013 268.1537,-1026.2269 281,-1035.6503 313.6899,-1059.63 329.7054,-1051.1786 370,-1055.6503 525.9316,-1072.9549 566.7803,-1070.1249 723,-1055.6503 771.1728,-1051.1868 797.0214,-1071.0474 830,-1035.6503 873.8746,-988.5582 898.7854,-523.0314 904.5459,-402.1882"/>
<polygon fill="#d3d3d3" stroke="#d3d3d3" stroke-width="6.6899" points="910.407,-402.1654 905.0294,-391.9016 898.7126,-401.6156 910.407,-402.1654"/>
<text text-anchor="middle" x="546.5" y="-1085.4503" font-family="Times,serif" font-size="14.00" fill="#000000">5353&#45;&gt;5353</text>
<text text-anchor="middle" x="546.5" y="-1070.4503" font-family="Times,serif" font-size="14.00" fill="#000000">192</text>
</g>
<!-- 10.0.0.110&#45;&gt;Broadcast -->
<g id="edge20" class="edge">
<title>10.0.0.110&#45;&gt;Broadcast</title>
<path fill="none" stroke="#d3d3d3" stroke-width="4.0418" d="M211.3614,-995.7125C233.7575,-1000.2276 258.2136,-1004.3866 281,-1006.6503 352.0674,-1013.7105 678.9348,-1023.0513 723,-994.6503 827.2222,-927.4769 887.6189,-514.752 902.3107,-402.0572"/>
<polygon fill="#d3d3d3" stroke="#d3d3d3" stroke-width="4.0418" points="905.8592,-402.1903 903.6262,-391.8211 898.8437,-401.2886 905.8592,-402.1903"/>
<text text-anchor="middle" x="546.5" y="-1032.4503" font-family="Times,serif" font-size="14.00" fill="#000000">0&#45;&gt;0</text>
<text text-anchor="middle" x="546.5" y="-1017.4503" font-family="Times,serif" font-size="14.00" fill="#000000">116</text>
</g>
<!-- 10.0.0.1 -->
<g id="node12" class="node">
<title>10.0.0.1</title>
<g id="a_node12"><a xlink:href="index.php?section=ipanalyze-10.0.0.1" xlink:title="10.0.0.1\nfritz.box." target="_parent">
<polygon fill="#d3d3d3" stroke="#000000" points="587,-783.6503 506,-783.6503 506,-745.6503 587,-745.6503 587,-783.6503"/>
<text text-anchor="middle" x="546.5" y="-768.4503" font-family="Times,serif" font-size="14.00" fill="#000000">10.0.0.1</text>
<text text-anchor="middle" x="546.5" y="-753.4503" font-family="Times,serif" font-size="14.00" fill="#000000">fritz.box.</text>
</a>
</g>
</g>
<!-- 10.0.0.110&#45;&gt;10.0.0.1 -->
<g id="edge3" class="edge">
<title>10.0.0.110&#45;&gt;10.0.0.1</title>
<path fill="none" stroke="#d3d3d3" stroke-width=".662" d="M204.3611,-957.5786C248.3751,-944.6787 304.8819,-925.6296 352,-901.6503 414.2843,-869.9527 479.2032,-820.3071 516.0649,-790.2861"/>
<polygon fill="#d3d3d3" stroke="#d3d3d3" stroke-width=".662" points="518.4245,-792.8775 523.9337,-783.8277 513.9834,-787.4666 518.4245,-792.8775"/>
<text text-anchor="middle" x="316.5" y="-950.4503" font-family="Times,serif" font-size="14.00" fill="#000000">0&#45;&gt;53</text>
<text text-anchor="middle" x="316.5" y="-935.4503" font-family="Times,serif" font-size="14.00" fill="#000000">19</text>
</g>
<!-- 10.99.131.97 -->
<g id="node27" class="node">
<title>10.99.131.97</title>
<ellipse fill="none" stroke="#000000" cx="546.5" cy="-967.6503" rx="72.2875" ry="18"/>
<text text-anchor="middle" x="546.5" y="-963.9503" font-family="Times,serif" font-size="14.00" fill="#000000">10.99.131.97</text>
</g>
<!-- 10.0.0.110&#45;&gt;10.99.131.97 -->
<g id="edge9" class="edge">
<title>10.0.0.110&#45;&gt;10.99.131.97</title>
<path fill="none" stroke="#00ff00" stroke-width=".6272" d="M231.6953,-974.4774C302.9923,-972.9312 397.6074,-970.8793 464.4363,-969.43"/>
<polygon fill="#00ff00" stroke="#00ff00" stroke-width=".6272" points="464.5799,-972.9278 474.5016,-969.2117 464.428,-965.9295 464.5799,-972.9278"/>
<text text-anchor="middle" x="316.5" y="-991.4503" font-family="Times,serif" font-size="14.00" fill="#000000">0&#45;&gt;443</text>
<text text-anchor="middle" x="316.5" y="-976.4503" font-family="Times,serif" font-size="14.00" fill="#000000">18</text>
</g>
<!-- 10.99.131.136 -->
<g id="node28" class="node">
<title>10.99.131.136</title>
<ellipse fill="none" stroke="#000000" cx="546.5" cy="-1153.6503" rx="77.9862" ry="18"/>
<text text-anchor="middle" x="546.5" y="-1149.9503" font-family="Times,serif" font-size="14.00" fill="#000000">10.99.131.136</text>
</g>
<!-- 10.0.0.110&#45;&gt;10.99.131.136 -->
<g id="edge17" class="edge">
<title>10.0.0.110&#45;&gt;10.99.131.136</title>
<path fill="none" stroke="#00ff00" stroke-width=".8014" d="M231.8151,-984.7008C243.4722,-989.2752 254.2867,-995.7047 263,-1004.6503 293.594,-1036.0601 250.5832,-1070.0689 281,-1101.6503 309.124,-1130.8512 330.2678,-1113.5879 370,-1121.6503 403.8735,-1128.5239 441.5511,-1135.4523 473.3672,-1141.0959"/>
<polygon fill="#00ff00" stroke="#00ff00" stroke-width=".8014" points="473.0226,-1144.5892 483.4789,-1142.8815 474.2399,-1137.6958 473.0226,-1144.5892"/>
<text text-anchor="middle" x="316.5" y="-1137.4503" font-family="Times,serif" font-size="14.00" fill="#000000">0&#45;&gt;443</text>
<text text-anchor="middle" x="316.5" y="-1122.4503" font-family="Times,serif" font-size="14.00" fill="#000000">23</text>
</g>
<!-- 10.0.0.111 -->
<g id="node4" class="node">
<title>10.0.0.111</title>
<g id="a_node4"><a xlink:href="index.php?section=ipanalyze-10.0.0.111" xlink:title="10.0.0.111\nTIZEN.fritz.box." target="_parent">
<polygon fill="#d3d3d3" stroke="#000000" points="198,-652.6503 65,-652.6503 65,-614.6503 198,-614.6503 198,-652.6503"/>
<text text-anchor="middle" x="131.5" y="-637.4503" font-family="Times,serif" font-size="14.00" fill="#000000">10.0.0.111</text>
<text text-anchor="middle" x="131.5" y="-622.4503" font-family="Times,serif" font-size="14.00" fill="#000000">TIZEN.fritz.box.</text>
</a>
</g>
</g>
<!-- 10.0.0.111&#45;&gt;Internet -->
<g id="edge2" class="edge">
<title>10.0.0.111&#45;&gt;Internet</title>
<path fill="none" stroke="#00ff00" stroke-width="1.9861" d="M151.8516,-614.3727C178.9707,-589.9368 229.544,-548.5982 281,-528.6503 348.163,-502.6133 431.3332,-495.6418 486.5012,-494.1933"/>
<polygon fill="#00ff00" stroke="#00ff00" stroke-width="1.9861" points="486.8822,-497.6862 496.807,-493.9785 486.7362,-490.6877 486.8822,-497.6862"/>
<text text-anchor="middle" x="316.5" y="-547.4503" font-family="Times,serif" font-size="14.00" fill="#000000">0&#45;&gt;443</text>
<text text-anchor="middle" x="316.5" y="-532.4503" font-family="Times,serif" font-size="14.00" fill="#000000">57</text>
</g>
<!-- 10.0.0.111&#45;&gt;Internet -->
<g id="edge22" class="edge">
<title>10.0.0.111&#45;&gt;Internet</title>
<path fill="none" stroke="#0000ff" stroke-width="2.7178" d="M142.1414,-614.3811C163.1666,-578.5797 213.8733,-502.7982 281,-473.6503 317.7608,-457.688 426.4775,-472.9728 492.8437,-484.5058"/>
<polygon fill="#0000ff" stroke="#0000ff" stroke-width="2.7178" points="492.258,-487.9565 502.7141,-486.2476 493.4744,-481.063 492.258,-487.9565"/>
<text text-anchor="middle" x="316.5" y="-492.4503" font-family="Times,serif" font-size="14.00" fill="#000000">0&#45;&gt;80</text>
<text text-anchor="middle" x="316.5" y="-477.4503" font-family="Times,serif" font-size="14.00" fill="#000000">78</text>
</g>
<!-- 10.0.0.111&#45;&gt;Broadcast -->
<g id="edge23" class="edge">
<title>10.0.0.111&#45;&gt;Broadcast</title>
<path fill="none" stroke="#d3d3d3" stroke-width="10" d="M195.6732,-652.6851C307.9646,-682.3708 545.0654,-728.7465 723,-651.6503 828.7259,-605.841 880.6992,-462.6515 898.4994,-401.6375"/>
<polygon fill="#d3d3d3" stroke="#d3d3d3" stroke-width="10" points="906.9495,-403.9112 901.2494,-391.9082 890.1093,-399.1512 906.9495,-403.9112"/>
<text text-anchor="middle" x="546.5" y="-712.4503" font-family="Times,serif" font-size="14.00" fill="#000000">0&#45;&gt;0</text>
<text text-anchor="middle" x="546.5" y="-697.4503" font-family="Times,serif" font-size="14.00" fill="#000000">287</text>
</g>
<!-- 10.0.0.111&#45;&gt;10.0.0.1 -->
<g id="edge10" class="edge">
<title>10.0.0.111&#45;&gt;10.0.0.1</title>
<path fill="none" stroke="#d3d3d3" stroke-width="6.6899" d="M150.2015,-652.718C176.6472,-678.3031 227.7173,-722.8174 281,-742.6503 352.0596,-769.1001 440.9848,-770.6962 495.7548,-768.4234"/>
<polygon fill="#d3d3d3" stroke="#d3d3d3" stroke-width="6.6899" points="496.1939,-774.2629 505.9049,-767.9414 495.6384,-762.5688 496.1939,-774.2629"/>
<text text-anchor="middle" x="316.5" y="-779.4503" font-family="Times,serif" font-size="14.00" fill="#000000">0&#45;&gt;53</text>
<text text-anchor="middle" x="316.5" y="-764.4503" font-family="Times,serif" font-size="14.00" fill="#000000">192</text>
</g>
<!-- 10.0.0.255 -->
<g id="node29" class="node">
<title>10.0.0.255</title>
<ellipse fill="none" stroke="#000000" cx="546.5" cy="-624.6503" rx="60.3893" ry="18"/>
<text text-anchor="middle" x="546.5" y="-620.9503" font-family="Times,serif" font-size="14.00" fill="#000000">10.0.0.255</text>
</g>
<!-- 10.0.0.111&#45;&gt;10.0.0.255 -->
<g id="edge24" class="edge">
<title>10.0.0.111&#45;&gt;10.0.0.255</title>
<path fill="none" stroke="#d3d3d3" stroke-width="2.4739" d="M198.1769,-632.2043C274.2663,-630.5542 398.1897,-627.8667 475.8848,-626.1817"/>
<polygon fill="#d3d3d3" stroke="#d3d3d3" stroke-width="2.4739" points="476.1401,-629.6771 486.0618,-625.961 475.9882,-622.6788 476.1401,-629.6771"/>
<text text-anchor="middle" x="316.5" y="-648.4503" font-family="Times,serif" font-size="14.00" fill="#000000">0&#45;&gt;0</text>
<text text-anchor="middle" x="316.5" y="-633.4503" font-family="Times,serif" font-size="14.00" fill="#000000">71</text>
</g>
<!-- 10.0.0.47 -->
<g id="node5" class="node">
<title>10.0.0.47</title>
<g id="a_node5"><a xlink:href="index.php?section=ipanalyze-10.0.0.47" xlink:title="10.0.0.47\nGalaxy&#45;A8&#45;2018.fritz.box." target="_parent">
<polygon fill="#d3d3d3" stroke="#000000" points="231,-1051.6503 32,-1051.6503 32,-1013.6503 231,-1013.6503 231,-1051.6503"/>
<text text-anchor="middle" x="131.5" y="-1036.4503" font-family="Times,serif" font-size="14.00" fill="#000000">10.0.0.47</text>
<text text-anchor="middle" x="131.5" y="-1021.4503" font-family="Times,serif" font-size="14.00" fill="#000000">Galaxy&#45;A8&#45;2018.fritz.box.</text>
</a>
</g>
</g>
<!-- 10.0.0.35 -->
<g id="node6" class="node">
<title>10.0.0.35</title>
<g id="a_node6"><a xlink:href="index.php?section=ipanalyze-10.0.0.35" xlink:title="10.0.0.35\n1025&#45;skohn.fritz.box." target="_parent">
<polygon fill="#d3d3d3" stroke="#000000" points="216,-1107.6503 47,-1107.6503 47,-1069.6503 216,-1069.6503 216,-1107.6503"/>
<text text-anchor="middle" x="131.5" y="-1092.4503" font-family="Times,serif" font-size="14.00" fill="#000000">10.0.0.35</text>
<text text-anchor="middle" x="131.5" y="-1077.4503" font-family="Times,serif" font-size="14.00" fill="#000000">1025&#45;skohn.fritz.box.</text>
</a>
</g>
</g>
<!-- 10.0.0.50 -->
<g id="node7" class="node">
<title>10.0.0.50</title>
<g id="a_node7"><a xlink:href="index.php?section=ipanalyze-10.0.0.50" xlink:title="10.0.0.50\nLAPTOP&#45;1210.fritz.box." target="_parent">
<polygon fill="#d3d3d3" stroke="#000000" points="224.5,-836.6503 38.5,-836.6503 38.5,-798.6503 224.5,-798.6503 224.5,-836.6503"/>
<text text-anchor="middle" x="131.5" y="-821.4503" font-family="Times,serif" font-size="14.00" fill="#000000">10.0.0.50</text>
<text text-anchor="middle" x="131.5" y="-806.4503" font-family="Times,serif" font-size="14.00" fill="#000000">LAPTOP&#45;1210.fritz.box.</text>
</a>
</g>
</g>
<!-- 10.0.0.50&#45;&gt;10.0.0.1 -->
<g id="edge18" class="edge">
<title>10.0.0.50&#45;&gt;10.0.0.1</title>
<path fill="none" stroke="#d3d3d3" stroke-width=".7666" d="M224.7106,-809.5705C264.0542,-805.8439 310.318,-801.0467 352,-795.6503 401.0279,-789.3029 456.7151,-780.2373 495.9017,-773.5484"/>
<polygon fill="#d3d3d3" stroke="#d3d3d3" stroke-width=".7666" points="496.7315,-776.9572 505.9952,-771.8158 495.5472,-770.0581 496.7315,-776.9572"/>
<text text-anchor="middle" x="316.5" y="-821.4503" font-family="Times,serif" font-size="14.00" fill="#000000">0&#45;&gt;53</text>
<text text-anchor="middle" x="316.5" y="-806.4503" font-family="Times,serif" font-size="14.00" fill="#000000">22</text>
</g>
<!-- 10.0.0.81 -->
<g id="node8" class="node">
<title>10.0.0.81</title>
<g id="a_node8"><a xlink:href="index.php?section=ipanalyze-10.0.0.81" xlink:title="10.0.0.81\nIPCAM.fritz.box." target="_parent">
<polygon fill="#d3d3d3" stroke="#000000" points="200,-1163.6503 63,-1163.6503 63,-1125.6503 200,-1125.6503 200,-1163.6503"/>
<text text-anchor="middle" x="131.5" y="-1148.4503" font-family="Times,serif" font-size="14.00" fill="#000000">10.0.0.81</text>
<text text-anchor="middle" x="131.5" y="-1133.4503" font-family="Times,serif" font-size="14.00" fill="#000000">IPCAM.fritz.box.</text>
</a>
</g>
</g>
<!-- 10.0.0.36 -->
<g id="node9" class="node">
<title>10.0.0.36</title>
<g id="a_node9"><a xlink:href="index.php?section=ipanalyze-10.0.0.36" xlink:title="10.0.0.36\nIPCAM.fritz.box." target="_parent">
<polygon fill="#d3d3d3" stroke="#000000" points="200,-1219.6503 63,-1219.6503 63,-1181.6503 200,-1181.6503 200,-1219.6503"/>
<text text-anchor="middle" x="131.5" y="-1204.4503" font-family="Times,serif" font-size="14.00" fill="#000000">10.0.0.36</text>
<text text-anchor="middle" x="131.5" y="-1189.4503" font-family="Times,serif" font-size="14.00" fill="#000000">IPCAM.fritz.box.</text>
</a>
</g>
</g>
<!-- 10.0.0.109 -->
<g id="node10" class="node">
<title>10.0.0.109</title>
<g id="a_node10"><a xlink:href="index.php?section=ipanalyze-10.0.0.109" xlink:title="10.0.0.109\nLaptop&#45;hkohn.fritz.box." target="_parent">
<polygon fill="#d3d3d3" stroke="#000000" points="224,-361.6503 39,-361.6503 39,-323.6503 224,-323.6503 224,-361.6503"/>
<text text-anchor="middle" x="131.5" y="-346.4503" font-family="Times,serif" font-size="14.00" fill="#000000">10.0.0.109</text>
<text text-anchor="middle" x="131.5" y="-331.4503" font-family="Times,serif" font-size="14.00" fill="#000000">Laptop&#45;hkohn.fritz.box.</text>
</a>
</g>
</g>
<!-- 10.0.0.109&#45;&gt;Internet -->
<g id="edge14" class="edge">
<title>10.0.0.109&#45;&gt;Internet</title>
<path fill="none" stroke="#00ff00" stroke-width="1.9861" d="M183.0479,-361.7219C243.8822,-384.5333 338.5243,-421.0921 352,-432.6503 363.8026,-442.7734 357.2096,-453.8082 370,-462.6503 404.0692,-486.2025 450.3762,-493.9199 487.0104,-495.8987"/>
<polygon fill="#00ff00" stroke="#00ff00" stroke-width="1.9861" points="486.9327,-499.3984 497.0684,-496.313 487.2209,-492.4043 486.9327,-499.3984"/>
<text text-anchor="middle" x="316.5" y="-451.4503" font-family="Times,serif" font-size="14.00" fill="#000000">0&#45;&gt;443</text>
<text text-anchor="middle" x="316.5" y="-436.4503" font-family="Times,serif" font-size="14.00" fill="#000000">57</text>
</g>
<!-- 10.0.0.109&#45;&gt;Internet -->
<g id="edge16" class="edge">
<title>10.0.0.109&#45;&gt;Internet</title>
<path fill="none" stroke="#d3d3d3" stroke-width=".9408" d="M224.1744,-347.5995C280.0812,-351.4694 342.3401,-357.7063 352,-366.6503 383.8534,-396.1428 339.2125,-432.0468 370,-462.6503 400.7163,-493.183 450.1482,-499.9858 488.8962,-499.8304"/>
<polygon fill="#d3d3d3" stroke="#d3d3d3" stroke-width=".9408" points="489.0769,-503.3276 499.007,-499.634 488.9409,-496.3289 489.0769,-503.3276"/>
<text text-anchor="middle" x="316.5" y="-385.4503" font-family="Times,serif" font-size="14.00" fill="#000000">137&#45;&gt;137</text>
<text text-anchor="middle" x="316.5" y="-370.4503" font-family="Times,serif" font-size="14.00" fill="#000000">27</text>
</g>
<!-- 10.0.0.109&#45;&gt;Internet -->
<g id="edge21" class="edge">
<title>10.0.0.109&#45;&gt;Internet</title>
<path fill="none" stroke="#d3d3d3" stroke-width="4.007" d="M168.5826,-323.5683C216.9911,-301.6437 301.4808,-274.0529 352,-318.6503 400.3528,-361.3353 325.6643,-415.8065 370,-462.6503 399.9675,-494.3131 449.9392,-500.9161 489.0759,-500.3984"/>
<polygon fill="#d3d3d3" stroke="#d3d3d3" stroke-width="4.007" points="489.3923,-503.8969 499.2862,-500.1018 489.1886,-496.8876 489.3923,-503.8969"/>
<text text-anchor="middle" x="316.5" y="-337.4503" font-family="Times,serif" font-size="14.00" fill="#000000">0&#45;&gt;443</text>
<text text-anchor="middle" x="316.5" y="-322.4503" font-family="Times,serif" font-size="14.00" fill="#000000">115</text>
</g>
<!-- 10.0.0.109&#45;&gt;Broadcast -->
<g id="edge7" class="edge">
<title>10.0.0.109&#45;&gt;Broadcast</title>
<path fill="none" stroke="#d3d3d3" stroke-width=".5923" d="M142.8158,-323.4469C164.79,-287.8787 216.7676,-211.7322 281,-171.6503 402.5027,-95.8311 665.4113,-136.2719 723,-147.6503 773.4442,-157.6171 793.5555,-155.377 830,-191.6503 873.3374,-234.7842 893.1229,-306.3317 901.1241,-345.6422"/>
<polygon fill="#d3d3d3" stroke="#d3d3d3" stroke-width=".5923" points="897.7124,-346.4352 903.0368,-355.5949 904.5866,-345.1141 897.7124,-346.4352"/>
<text text-anchor="middle" x="546.5" y="-166.4503" font-family="Times,serif" font-size="14.00" fill="#000000">5353&#45;&gt;5353</text>
<text text-anchor="middle" x="546.5" y="-151.4503" font-family="Times,serif" font-size="14.00" fill="#000000">17</text>
</g>
<!-- 10.0.0.109&#45;&gt;Broadcast -->
<g id="edge8" class="edge">
<title>10.0.0.109&#45;&gt;Broadcast</title>
<path fill="none" stroke="#d3d3d3" stroke-width="1.2544" d="M159.8397,-323.467C205.6792,-295.0484 296.5418,-249.8902 352,-296.6503 388.1978,-327.1708 334.0502,-370.8382 370,-401.6503 408.8108,-434.9146 780.0151,-418.3415 830,-407.6503 843.1386,-404.8401 856.753,-399.5765 868.759,-394.0158"/>
<polygon fill="#d3d3d3" stroke="#d3d3d3" stroke-width="1.2544" points="870.532,-397.0459 878.0031,-389.5337 867.4779,-390.7473 870.532,-397.0459"/>
<text text-anchor="middle" x="546.5" y="-439.4503" font-family="Times,serif" font-size="14.00" fill="#000000">0&#45;&gt;0</text>
<text text-anchor="middle" x="546.5" y="-424.4503" font-family="Times,serif" font-size="14.00" fill="#000000">36</text>
</g>
<!-- 10.0.0.109&#45;&gt;10.0.0.1 -->
<g id="edge19" class="edge">
<title>10.0.0.109&#45;&gt;10.0.0.1</title>
<path fill="none" stroke="#d3d3d3" stroke-width=".8362" d="M142.5183,-361.9412C166.6637,-404.7563 225.1037,-511.3957 263,-605.6503 273.0686,-630.6926 263.94,-642.735 281,-663.6503 309.5407,-698.6409 328.3208,-695.279 370,-712.6503 411.2367,-729.8372 460.0929,-743.7647 495.9371,-752.8647"/>
<polygon fill="#d3d3d3" stroke="#d3d3d3" stroke-width=".8362" points="495.1344,-756.2717 505.6848,-755.302 496.8325,-749.4807 495.1344,-756.2717"/>
<text text-anchor="middle" x="316.5" y="-724.4503" font-family="Times,serif" font-size="14.00" fill="#000000">0&#45;&gt;53</text>
<text text-anchor="middle" x="316.5" y="-709.4503" font-family="Times,serif" font-size="14.00" fill="#000000">24</text>
</g>
<!-- 10.0.0.85 -->
<g id="node11" class="node">
<title>10.0.0.85</title>
<g id="a_node11"><a xlink:href="index.php?section=ipanalyze-10.0.0.85" xlink:title="10.0.0.85\nIPCAM.fritz.box." target="_parent">
<polygon fill="#d3d3d3" stroke="#000000" points="200,-1275.6503 63,-1275.6503 63,-1237.6503 200,-1237.6503 200,-1275.6503"/>
<text text-anchor="middle" x="131.5" y="-1260.4503" font-family="Times,serif" font-size="14.00" fill="#000000">10.0.0.85</text>
<text text-anchor="middle" x="131.5" y="-1245.4503" font-family="Times,serif" font-size="14.00" fill="#000000">IPCAM.fritz.box.</text>
</a>
</g>
</g>
<!-- 10.0.0.1&#45;&gt;Broadcast -->
<g id="edge1" class="edge">
<title>10.0.0.1&#45;&gt;Broadcast</title>
<path fill="none" stroke="#d3d3d3" stroke-width="2.0209" d="M587.1077,-766.5822C648.5808,-767.1577 764.9711,-758.6809 830,-692.6503 870.8538,-651.1672 894.8446,-472.3031 902.8368,-402.0925"/>
<polygon fill="#d3d3d3" stroke="#d3d3d3" stroke-width="2.0209" points="906.3552,-402.1204 903.9823,-391.7948 899.3981,-401.3465 906.3552,-402.1204"/>
<text text-anchor="middle" x="785.5" y="-762.4503" font-family="Times,serif" font-size="14.00" fill="#000000">0&#45;&gt;0</text>
<text text-anchor="middle" x="785.5" y="-747.4503" font-family="Times,serif" font-size="14.00" fill="#000000">58</text>
</g>
<!-- 10.0.0.10 -->
<g id="node13" class="node">
<title>10.0.0.10</title>
<g id="a_node13"><a xlink:href="index.php?section=ipanalyze-10.0.0.10" xlink:title="10.0.0.10\nALL4076&#45;2.fritz.box." target="_parent">
<polygon fill="#d3d3d3" stroke="#000000" points="214,-1331.6503 49,-1331.6503 49,-1293.6503 214,-1293.6503 214,-1331.6503"/>
<text text-anchor="middle" x="131.5" y="-1316.4503" font-family="Times,serif" font-size="14.00" fill="#000000">10.0.0.10</text>
<text text-anchor="middle" x="131.5" y="-1301.4503" font-family="Times,serif" font-size="14.00" fill="#000000">ALL4076&#45;2.fritz.box.</text>
</a>
</g>
</g>
<!-- 10.0.0.129 -->
<g id="node14" class="node">
<title>10.0.0.129</title>
<g id="a_node14"><a xlink:href="index.php?section=ipanalyze-10.0.0.129" xlink:title="10.0.0.129\nviviquef.fritz.box." target="_parent">
<polygon fill="#d3d3d3" stroke="#000000" points="203,-1387.6503 60,-1387.6503 60,-1349.6503 203,-1349.6503 203,-1387.6503"/>
<text text-anchor="middle" x="131.5" y="-1372.4503" font-family="Times,serif" font-size="14.00" fill="#000000">10.0.0.129</text>
<text text-anchor="middle" x="131.5" y="-1357.4503" font-family="Times,serif" font-size="14.00" fill="#000000">viviquef.fritz.box.</text>
</a>
</g>
</g>
<!-- 10.0.0.89 -->
<g id="node15" class="node">
<title>10.0.0.89</title>
<g id="a_node15"><a xlink:href="index.php?section=ipanalyze-10.0.0.89" xlink:title="10.0.0.89\nEAP225&#45;Outdoor&#45;CC&#45;32&#45;E5&#45;7C&#45;AB&#45;48.fritz.box." target="_parent">
<polygon fill="#d3d3d3" stroke="#000000" points="723,-568.6503 370,-568.6503 370,-530.6503 723,-530.6503 723,-568.6503"/>
<text text-anchor="middle" x="546.5" y="-553.4503" font-family="Times,serif" font-size="14.00" fill="#000000">10.0.0.89</text>
<text text-anchor="middle" x="546.5" y="-538.4503" font-family="Times,serif" font-size="14.00" fill="#000000">EAP225&#45;Outdoor&#45;CC&#45;32&#45;E5&#45;7C&#45;AB&#45;48.fritz.box.</text>
</a>
</g>
</g>
<!-- 10.0.0.89&#45;&gt;Broadcast -->
<g id="edge5" class="edge">
<title>10.0.0.89&#45;&gt;Broadcast</title>
<path fill="none" stroke="#d3d3d3" stroke-width="2.8571" d="M698.0603,-530.5684C706.616,-527.9634 714.9873,-525.0065 723,-521.6503 789.9563,-493.6052 852.0822,-433.1544 883.8058,-398.8194"/>
<polygon fill="#d3d3d3" stroke="#d3d3d3" stroke-width="2.8571" points="886.6933,-400.8466 890.8361,-391.0953 881.5166,-396.1348 886.6933,-400.8466"/>
<text text-anchor="middle" x="785.5" y="-529.4503" font-family="Times,serif" font-size="14.00" fill="#000000">0&#45;&gt;0</text>
<text text-anchor="middle" x="785.5" y="-514.4503" font-family="Times,serif" font-size="14.00" fill="#000000">82</text>
</g>
<!-- 10.0.0.56 -->
<g id="node16" class="node">
<title>10.0.0.56</title>
<g id="a_node16"><a xlink:href="index.php?section=ipanalyze-10.0.0.56" xlink:title="10.0.0.56\nGoogle&#45;Home&#45;Mini.fritz.box." target="_parent">
<polygon fill="#d3d3d3" stroke="#000000" points="241,-91.6503 22,-91.6503 22,-53.6503 241,-53.6503 241,-91.6503"/>
<text text-anchor="middle" x="131.5" y="-76.4503" font-family="Times,serif" font-size="14.00" fill="#000000">10.0.0.56</text>
<text text-anchor="middle" x="131.5" y="-61.4503" font-family="Times,serif" font-size="14.00" fill="#000000">Google&#45;Home&#45;Mini.fritz.box.</text>
</a>
</g>
</g>
<!-- 10.0.0.56&#45;&gt;Internet -->
<g id="edge6" class="edge">
<title>10.0.0.56&#45;&gt;Internet</title>
<path fill="none" stroke="#d3d3d3" stroke-width=".6969" d="M168.1281,-91.7298C219.3338,-120.6083 310.6706,-180.6462 352,-260.6503 372.6842,-300.69 339.6068,-429.3747 370,-462.6503 399.5602,-495.0139 449.9681,-501.4636 489.3642,-500.7113"/>
<polygon fill="#d3d3d3" stroke="#d3d3d3" stroke-width=".6969" points="489.5086,-504.2085 499.3811,-500.3635 489.2656,-497.2127 489.5086,-504.2085"/>
<text text-anchor="middle" x="316.5" y="-279.4503" font-family="Times,serif" font-size="14.00" fill="#000000">0&#45;&gt;53</text>
<text text-anchor="middle" x="316.5" y="-264.4503" font-family="Times,serif" font-size="14.00" fill="#000000">20</text>
</g>
<!-- 10.0.0.56&#45;&gt;Broadcast -->
<g id="edge4" class="edge">
<title>10.0.0.56&#45;&gt;Broadcast</title>
<path fill="none" stroke="#d3d3d3" stroke-width="1.4634" d="M241.1571,-62.6812C361.4326,-54.9222 559.1575,-51.5642 723,-93.6503 774.5935,-106.9031 795.1325,-107.3789 830,-147.6503 880.5162,-205.9958 897.6813,-299.2551 903.2789,-345.6071"/>
<polygon fill="#d3d3d3" stroke="#d3d3d3" stroke-width="1.4634" points="899.8004,-345.9956 904.3867,-355.5463 906.7573,-345.2201 899.8004,-345.9956"/>
<text text-anchor="middle" x="546.5" y="-112.4503" font-family="Times,serif" font-size="14.00" fill="#000000">5353&#45;&gt;5353</text>
<text text-anchor="middle" x="546.5" y="-97.4503" font-family="Times,serif" font-size="14.00" fill="#000000">42</text>
</g>
<!-- 10.0.0.56&#45;&gt;Broadcast -->
<g id="edge27" class="edge">
<title>10.0.0.56&#45;&gt;Broadcast</title>
<path fill="none" stroke="#d3d3d3" stroke-width="1.9512" d="M191.7666,-53.5749C300.446,-22.2605 535.4009,31.2628 723,-24.6503 777.4606,-40.8821 796.5912,-48.6798 830,-94.6503 886.8714,-172.9054 901.0991,-291.4571 904.658,-345.2826"/>
<polygon fill="#d3d3d3" stroke="#d3d3d3" stroke-width="1.9512" points="901.1747,-345.6725 905.2521,-355.4513 908.1628,-345.2641 901.1747,-345.6725"/>
<text text-anchor="middle" x="546.5" y="-43.4503" font-family="Times,serif" font-size="14.00" fill="#000000">0&#45;&gt;0</text>
<text text-anchor="middle" x="546.5" y="-28.4503" font-family="Times,serif" font-size="14.00" fill="#000000">56</text>
</g>
<!-- 10.0.0.117 -->
<g id="node17" class="node">
<title>10.0.0.117</title>
<g id="a_node17"><a xlink:href="index.php?section=ipanalyze-10.0.0.117" xlink:title="10.0.0.117\nGalaxy&#45;A6.fritz.box." target="_parent">
<polygon fill="#d3d3d3" stroke="#000000" points="210.5,-1443.6503 52.5,-1443.6503 52.5,-1405.6503 210.5,-1405.6503 210.5,-1443.6503"/>
<text text-anchor="middle" x="131.5" y="-1428.4503" font-family="Times,serif" font-size="14.00" fill="#000000">10.0.0.117</text>
<text text-anchor="middle" x="131.5" y="-1413.4503" font-family="Times,serif" font-size="14.00" fill="#000000">Galaxy&#45;A6.fritz.box.</text>
</a>
</g>
</g>
<!-- 10.0.0.136 -->
<g id="node18" class="node">
<title>10.0.0.136</title>
<g id="a_node18"><a xlink:href="index.php?section=ipanalyze-10.0.0.136" xlink:title="10.0.0.136\n1025&#45;skohn.fritz.box." target="_parent">
<polygon fill="#d3d3d3" stroke="#000000" points="631,-392.6503 462,-392.6503 462,-354.6503 631,-354.6503 631,-392.6503"/>
<text text-anchor="middle" x="546.5" y="-377.4503" font-family="Times,serif" font-size="14.00" fill="#000000">10.0.0.136</text>
<text text-anchor="middle" x="546.5" y="-362.4503" font-family="Times,serif" font-size="14.00" fill="#000000">1025&#45;skohn.fritz.box.</text>
</a>
</g>
</g>
<!-- 10.0.0.136&#45;&gt;Broadcast -->
<g id="edge15" class="edge">
<title>10.0.0.136&#45;&gt;Broadcast</title>
<path fill="none" stroke="#d3d3d3" stroke-width=".5923" d="M631.2047,-373.6503C694.1362,-373.6503 778.8808,-373.6503 837.5136,-373.6503"/>
<polygon fill="#d3d3d3" stroke="#d3d3d3" stroke-width=".5923" points="837.782,-377.1504 847.782,-373.6503 837.7819,-370.1504 837.782,-377.1504"/>
<text text-anchor="middle" x="785.5" y="-392.4503" font-family="Times,serif" font-size="14.00" fill="#000000">5353&#45;&gt;5353</text>
<text text-anchor="middle" x="785.5" y="-377.4503" font-family="Times,serif" font-size="14.00" fill="#000000">17</text>
</g>
<!-- 10.0.0.118 -->
<g id="node19" class="node">
<title>10.0.0.118</title>
<g id="a_node19"><a xlink:href="index.php?section=ipanalyze-10.0.0.118" xlink:title="10.0.0.118\nhomatic&#45;IP&#45;gw.fritz.box." target="_parent">
<polygon fill="#d3d3d3" stroke="#000000" points="639.5,-336.6503 453.5,-336.6503 453.5,-298.6503 639.5,-298.6503 639.5,-336.6503"/>
<text text-anchor="middle" x="546.5" y="-321.4503" font-family="Times,serif" font-size="14.00" fill="#000000">10.0.0.118</text>
<text text-anchor="middle" x="546.5" y="-306.4503" font-family="Times,serif" font-size="14.00" fill="#000000">homatic&#45;IP&#45;gw.fritz.box.</text>
</a>
</g>
</g>
<!-- 10.0.0.118&#45;&gt;Broadcast -->
<g id="edge28" class="edge">
<title>10.0.0.118&#45;&gt;Broadcast</title>
<path fill="none" stroke="#d3d3d3" stroke-width=".662" d="M639.7313,-316.8791C695.674,-318.3821 767.8094,-323.8078 830,-339.6503 842.7992,-342.9108 856.1417,-348.1862 868.0028,-353.6189"/>
<polygon fill="#d3d3d3" stroke="#d3d3d3" stroke-width=".662" points="866.6249,-356.8393 877.1588,-357.9741 869.6317,-350.5179 866.6249,-356.8393"/>
<text text-anchor="middle" x="785.5" y="-358.4503" font-family="Times,serif" font-size="14.00" fill="#000000">0&#45;&gt;0</text>
<text text-anchor="middle" x="785.5" y="-343.4503" font-family="Times,serif" font-size="14.00" fill="#000000">19</text>
</g>
<!-- 10.0.0.112 -->
<g id="node20" class="node">
<title>10.0.0.112</title>
<g id="a_node20"><a xlink:href="index.php?section=ipanalyze-10.0.0.112" xlink:title="10.0.0.112\nBrother&#45;MFC&#45;9332CDW.fritz.box." target="_parent">
<polygon fill="#d3d3d3" stroke="#000000" points="674.5,-280.6503 418.5,-280.6503 418.5,-242.6503 674.5,-242.6503 674.5,-280.6503"/>
<text text-anchor="middle" x="546.5" y="-265.4503" font-family="Times,serif" font-size="14.00" fill="#000000">10.0.0.112</text>
<text text-anchor="middle" x="546.5" y="-250.4503" font-family="Times,serif" font-size="14.00" fill="#000000">Brother&#45;MFC&#45;9332CDW.fritz.box.</text>
</a>
</g>
</g>
<!-- 10.0.0.112&#45;&gt;Broadcast -->
<g id="edge26" class="edge">
<title>10.0.0.112&#45;&gt;Broadcast</title>
<path fill="none" stroke="#d3d3d3" stroke-width=".5226" d="M674.8076,-254.8319C725.4782,-257.0022 782.756,-265.8057 830,-289.6503 855.4027,-302.4713 876.3365,-327.6683 889.7282,-347.136"/>
<polygon fill="#d3d3d3" stroke="#d3d3d3" stroke-width=".5226" points="886.901,-349.2059 895.3394,-355.6124 892.7379,-345.3419 886.901,-349.2059"/>
<text text-anchor="middle" x="785.5" y="-308.4503" font-family="Times,serif" font-size="14.00" fill="#000000">5353&#45;&gt;5353</text>
<text text-anchor="middle" x="785.5" y="-293.4503" font-family="Times,serif" font-size="14.00" fill="#000000">15</text>
</g>
<!-- 10.0.0.104 -->
<g id="node21" class="node">
<title>10.0.0.104</title>
<g id="a_node21"><a xlink:href="index.php?section=ipanalyze-10.0.0.104" xlink:title="10.0.0.104\nhausintelligenz.fritz.box." target="_parent">
<polygon fill="#d3d3d3" stroke="#000000" points="228.5,-1499.6503 34.5,-1499.6503 34.5,-1461.6503 228.5,-1461.6503 228.5,-1499.6503"/>
<text text-anchor="middle" x="131.5" y="-1484.4503" font-family="Times,serif" font-size="14.00" fill="#000000">10.0.0.104</text>
<text text-anchor="middle" x="131.5" y="-1469.4503" font-family="Times,serif" font-size="14.00" fill="#000000">hausintelligenz.fritz.box.</text>
</a>
</g>
</g>
<!-- 10.0.0.26 -->
<g id="node22" class="node">
<title>10.0.0.26</title>
<g id="a_node22"><a xlink:href="index.php?section=ipanalyze-10.0.0.26" xlink:title="10.0.0.26\nHolgers&#45;Ackerschnacker.fritz.box." target="_parent">
<polygon fill="#d3d3d3" stroke="#000000" points="263,-1555.6503 0,-1555.6503 0,-1517.6503 263,-1517.6503 263,-1555.6503"/>
<text text-anchor="middle" x="131.5" y="-1540.4503" font-family="Times,serif" font-size="14.00" fill="#000000">10.0.0.26</text>
<text text-anchor="middle" x="131.5" y="-1525.4503" font-family="Times,serif" font-size="14.00" fill="#000000">Holgers&#45;Ackerschnacker.fritz.box.</text>
</a>
</g>
</g>
<!-- 10.0.0.79 -->
<g id="node23" class="node">
<title>10.0.0.79</title>
<g id="a_node23"><a xlink:href="index.php?section=ipanalyze-10.0.0.79" xlink:title="10.0.0.79\nSandra&#45;S9.fritz.box." target="_parent">
<polygon fill="#d3d3d3" stroke="#000000" points="626.5,-224.6503 466.5,-224.6503 466.5,-186.6503 626.5,-186.6503 626.5,-224.6503"/>
<text text-anchor="middle" x="546.5" y="-209.4503" font-family="Times,serif" font-size="14.00" fill="#000000">10.0.0.79</text>
<text text-anchor="middle" x="546.5" y="-194.4503" font-family="Times,serif" font-size="14.00" fill="#000000">Sandra&#45;S9.fritz.box.</text>
</a>
</g>
</g>
<!-- 10.0.0.79&#45;&gt;Broadcast -->
<g id="edge13" class="edge">
<title>10.0.0.79&#45;&gt;Broadcast</title>
<path fill="none" stroke="#d3d3d3" stroke-width=".6969" d="M626.5077,-192.1926C687.2812,-186.3373 770.3042,-188.1489 830,-227.6503 871.0159,-254.791 891.1689,-311.4721 899.9684,-345.677"/>
<polygon fill="#d3d3d3" stroke="#d3d3d3" stroke-width=".6969" points="896.5943,-346.6151 902.3453,-355.5131 903.3984,-344.9708 896.5943,-346.6151"/>
<text text-anchor="middle" x="785.5" y="-246.4503" font-family="Times,serif" font-size="14.00" fill="#000000">5353&#45;&gt;5353</text>
<text text-anchor="middle" x="785.5" y="-231.4503" font-family="Times,serif" font-size="14.00" fill="#000000">20</text>
</g>
<!-- 10.0.0.32 -->
<g id="node24" class="node">
<title>10.0.0.32</title>
<g id="a_node24"><a xlink:href="index.php?section=ipanalyze-10.0.0.32" xlink:title="10.0.0.32\nIPCAM.fritz.box." target="_parent">
<polygon fill="#d3d3d3" stroke="#000000" points="200,-1611.6503 63,-1611.6503 63,-1573.6503 200,-1573.6503 200,-1611.6503"/>
<text text-anchor="middle" x="131.5" y="-1596.4503" font-family="Times,serif" font-size="14.00" fill="#000000">10.0.0.32</text>
<text text-anchor="middle" x="131.5" y="-1581.4503" font-family="Times,serif" font-size="14.00" fill="#000000">IPCAM.fritz.box.</text>
</a>
</g>
</g>
<!-- 10.0.0.77 -->
<g id="node25" class="node">
<title>10.0.0.77</title>
<g id="a_node25"><a xlink:href="index.php?section=ipanalyze-10.0.0.77" xlink:title="10.0.0.77\nSNMP&#45;Reader.fritz.box." target="_parent">
<polygon fill="#d3d3d3" stroke="#000000" points="224,-1667.6503 39,-1667.6503 39,-1629.6503 224,-1629.6503 224,-1667.6503"/>
<text text-anchor="middle" x="131.5" y="-1652.4503" font-family="Times,serif" font-size="14.00" fill="#000000">10.0.0.77</text>
<text text-anchor="middle" x="131.5" y="-1637.4503" font-family="Times,serif" font-size="14.00" fill="#000000">SNMP&#45;Reader.fritz.box.</text>
</a>
</g>
</g>
<!-- 10.0.0.55 -->
<g id="node26" class="node">
<title>10.0.0.55</title>
<g id="a_node26"><a xlink:href="index.php?section=ipanalyze-10.0.0.55" xlink:title="10.0.0.55\nGalaxy&#45;Tab&#45;A.fritz.box." target="_parent">
<polygon fill="#d3d3d3" stroke="#000000" points="221,-1723.6503 42,-1723.6503 42,-1685.6503 221,-1685.6503 221,-1723.6503"/>
<text text-anchor="middle" x="131.5" y="-1708.4503" font-family="Times,serif" font-size="14.00" fill="#000000">10.0.0.55</text>
<text text-anchor="middle" x="131.5" y="-1693.4503" font-family="Times,serif" font-size="14.00" fill="#000000">Galaxy&#45;Tab&#45;A.fritz.box.</text>
</a>
</g>
</g>
</g>
</svg>
