<?xml version="1.0" encoding="UTF-8" standalone="no"?>
<!DOCTYPE svg PUBLIC "-//W3C//DTD SVG 1.1//EN"
 "http://www.w3.org/Graphics/SVG/1.1/DTD/svg11.dtd">
<!-- Generated by graphviz version 2.40.1 (20161225.0304)
 -->
<!-- Title: html Pages: 1 -->
<svg width="1202pt" height="1666pt"
 viewBox="0.00 0.00 1201.99 1665.61" xmlns="http://www.w3.org/2000/svg" xmlns:xlink="http://www.w3.org/1999/xlink">
<g id="graph0" class="graph" transform="scale(1 1) rotate(0) translate(4 1661.6142)">
<title>html</title>
<polygon fill="#ffffff" stroke="transparent" points="-4,4 -4,-1661.6142 1197.9862,-1661.6142 1197.9862,4 -4,4"/>
<text text-anchor="middle" x="596.9931" y="-1642.4142" font-family="Times,serif" font-size="14.00" fill="#000000">/var/www/html/files/tmp2.log</text>
<!-- Internet -->
<g id="node1" class="node">
<title>Internet</title>
<ellipse fill="#add8e6" stroke="#000000" cx="1115.9931" cy="-899.6142" rx="49.2915" ry="18"/>
<text text-anchor="middle" x="1115.9931" y="-895.9142" font-family="Times,serif" font-size="14.00" fill="#000000">Internet</text>
</g>
<!-- Broadcast -->
<g id="node2" class="node">
<title>Broadcast</title>
<ellipse fill="#a020f0" stroke="#000000" cx="1115.9931" cy="-336.6142" rx="57.6901" ry="18"/>
<text text-anchor="middle" x="1115.9931" y="-332.9142" font-family="Times,serif" font-size="14.00" fill="#000000">Broadcast</text>
</g>
<!-- 10.0.0.1 -->
<g id="node3" class="node">
<title>10.0.0.1</title>
<g id="a_node3"><a xlink:href="index.php?section=ipanalyze-10.0.0.1" xlink:title="10.0.0.1\nfritz.box." target="_parent">
<polygon fill="#d3d3d3" stroke="#000000" points="435,-796.6142 354,-796.6142 354,-758.6142 435,-758.6142 435,-796.6142"/>
<text text-anchor="middle" x="394.5" y="-781.4142" font-family="Times,serif" font-size="14.00" fill="#000000">10.0.0.1</text>
<text text-anchor="middle" x="394.5" y="-766.4142" font-family="Times,serif" font-size="14.00" fill="#000000">fritz.box.</text>
</a>
</g>
</g>
<!-- 10.0.0.1&#45;&gt;Broadcast -->
<g id="edge12" class="edge">
<title>10.0.0.1&#45;&gt;Broadcast</title>
<path fill="none" stroke="#d3d3d3" stroke-width=".1019" d="M435.0089,-764.3592C553.4741,-725.5098 892.2643,-613.7616 913,-599.6142 1005.8472,-536.2673 1074.9651,-416.9667 1102.6797,-363.6043"/>
<polygon fill="#d3d3d3" stroke="#d3d3d3" stroke-width=".1019" points="1105.9313,-364.9329 1107.3691,-354.436 1099.6992,-361.7452 1105.9313,-364.9329"/>
<text text-anchor="middle" x="736.5" y="-740.4142" font-family="Times,serif" font-size="14.00" fill="#000000">5353&#45;&gt;5353</text>
<text text-anchor="middle" x="736.5" y="-725.4142" font-family="Times,serif" font-size="14.00" fill="#000000">6</text>
</g>
<!-- 10.0.0.110 -->
<g id="node21" class="node">
<title>10.0.0.110</title>
<g id="a_node21"><a xlink:href="index.php?section=ipanalyze-10.0.0.110" xlink:title="10.0.0.110\nDE42LAP00016.fritz.box." target="_parent">
<polygon fill="#d3d3d3" stroke="#000000" points="836.5,-841.6142 636.5,-841.6142 636.5,-803.6142 836.5,-803.6142 836.5,-841.6142"/>
<text text-anchor="middle" x="736.5" y="-826.4142" font-family="Times,serif" font-size="14.00" fill="#000000">10.0.0.110</text>
<text text-anchor="middle" x="736.5" y="-811.4142" font-family="Times,serif" font-size="14.00" fill="#000000">DE42LAP00016.fritz.box.</text>
</a>
</g>
</g>
<!-- 10.0.0.1&#45;&gt;10.0.0.110 -->
<g id="edge16" class="edge">
<title>10.0.0.1&#45;&gt;10.0.0.110</title>
<path fill="none" stroke="#d3d3d3" stroke-width=".3565" d="M435.2758,-768.9464C441.1972,-767.9797 447.2378,-767.1513 453,-766.6142 492.3849,-762.9435 502.8324,-761.0879 542,-766.6142 587.5148,-773.0361 637.2993,-787.5166 675.106,-800.1435"/>
<polygon fill="#d3d3d3" stroke="#d3d3d3" stroke-width=".3565" points="674.3486,-803.5823 684.9429,-803.4771 676.5954,-796.9526 674.3486,-803.5823"/>
<text text-anchor="middle" x="497.5" y="-785.4142" font-family="Times,serif" font-size="14.00" fill="#000000">0&#45;&gt;0</text>
<text text-anchor="middle" x="497.5" y="-770.4142" font-family="Times,serif" font-size="14.00" fill="#000000">21</text>
</g>
<!-- 10.0.0.255 -->
<g id="node24" class="node">
<title>10.0.0.255</title>
<ellipse fill="none" stroke="#000000" cx="736.5" cy="-920.6142" rx="60.3893" ry="18"/>
<text text-anchor="middle" x="736.5" y="-916.9142" font-family="Times,serif" font-size="14.00" fill="#000000">10.0.0.255</text>
</g>
<!-- 10.0.0.1&#45;&gt;10.0.0.255 -->
<g id="edge4" class="edge">
<title>10.0.0.1&#45;&gt;10.0.0.255</title>
<path fill="none" stroke="#d3d3d3" stroke-width=".1358" d="M405.4691,-796.8096C415.7189,-813.0202 432.4984,-835.6127 453,-848.6142 471.9563,-860.6358 599.9641,-890.3973 677.3436,-907.6593"/>
<polygon fill="#d3d3d3" stroke="#d3d3d3" stroke-width=".1358" points="676.9241,-911.1514 687.4455,-909.906 678.4439,-904.3184 676.9241,-911.1514"/>
<text text-anchor="middle" x="497.5" y="-894.4142" font-family="Times,serif" font-size="14.00" fill="#000000">138&#45;&gt;138</text>
<text text-anchor="middle" x="497.5" y="-879.4142" font-family="Times,serif" font-size="14.00" fill="#000000">8</text>
</g>
<!-- 10.0.0.81 -->
<g id="node4" class="node">
<title>10.0.0.81</title>
<g id="a_node4"><a xlink:href="index.php?section=ipanalyze-10.0.0.81" xlink:title="10.0.0.81\nIPCAM.fritz.box." target="_parent">
<polygon fill="#d3d3d3" stroke="#000000" points="205.5,-1186.6142 68.5,-1186.6142 68.5,-1148.6142 205.5,-1148.6142 205.5,-1186.6142"/>
<text text-anchor="middle" x="137" y="-1171.4142" font-family="Times,serif" font-size="14.00" fill="#000000">10.0.0.81</text>
<text text-anchor="middle" x="137" y="-1156.4142" font-family="Times,serif" font-size="14.00" fill="#000000">IPCAM.fritz.box.</text>
</a>
</g>
</g>
<!-- 10.0.0.190 -->
<g id="node5" class="node">
<title>10.0.0.190</title>
<g id="a_node5"><a xlink:href="index.php?section=ipanalyze-10.0.0.190" xlink:title="10.0.0.190\nraspberrypi.fritz.box." target="_parent">
<polygon fill="#d3d3d3" stroke="#000000" points="222,-751.6142 52,-751.6142 52,-713.6142 222,-713.6142 222,-751.6142"/>
<text text-anchor="middle" x="137" y="-736.4142" font-family="Times,serif" font-size="14.00" fill="#000000">10.0.0.190</text>
<text text-anchor="middle" x="137" y="-721.4142" font-family="Times,serif" font-size="14.00" fill="#000000">raspberrypi.fritz.box.</text>
</a>
</g>
</g>
<!-- 10.0.0.190&#45;&gt;10.0.0.1 -->
<g id="edge20" class="edge">
<title>10.0.0.190&#45;&gt;10.0.0.1</title>
<path fill="none" stroke="#d3d3d3" stroke-width=".5772" d="M222.2075,-721.3799C258.1786,-719.5903 299.9849,-721.4812 336,-733.6142 347.5503,-737.5054 358.6568,-744.6564 368.031,-752.0787"/>
<polygon fill="#d3d3d3" stroke="#d3d3d3" stroke-width=".5772" points="365.8821,-754.8446 375.7906,-758.5961 370.3842,-749.4844 365.8821,-754.8446"/>
<text text-anchor="middle" x="314" y="-752.4142" font-family="Times,serif" font-size="14.00" fill="#000000">0&#45;&gt;53</text>
<text text-anchor="middle" x="314" y="-737.4142" font-family="Times,serif" font-size="14.00" fill="#000000">34</text>
</g>
<!-- 10.0.0.162 -->
<g id="node6" class="node">
<title>10.0.0.162</title>
<g id="a_node6"><a xlink:href="index.php?section=ipanalyze-10.0.0.162" xlink:title="10.0.0.162\nSB&#45;139115.fritz.box." target="_parent">
<polygon fill="#d3d3d3" stroke="#000000" points="219,-1130.6142 55,-1130.6142 55,-1092.6142 219,-1092.6142 219,-1130.6142"/>
<text text-anchor="middle" x="137" y="-1115.4142" font-family="Times,serif" font-size="14.00" fill="#000000">10.0.0.162</text>
<text text-anchor="middle" x="137" y="-1100.4142" font-family="Times,serif" font-size="14.00" fill="#000000">SB&#45;139115.fritz.box.</text>
</a>
</g>
</g>
<!-- 10.0.0.162&#45;&gt;Internet -->
<g id="edge18" class="edge">
<title>10.0.0.162&#45;&gt;Internet</title>
<path fill="none" stroke="#00ff00" stroke-width=".1358" d="M219.2439,-1113.7018C239.221,-1117.8988 259.0949,-1125.6974 274,-1139.6142 295.9102,-1160.0717 269.1295,-1185.2362 292,-1204.6142 421.8573,-1314.6417 902.7872,-1316.8659 1020,-1204.6142 1056.7066,-1169.4612 1016.5685,-1022.699 1038,-976.6142 1048.2049,-954.6703 1067.5212,-935.5246 1084.3764,-921.8133"/>
<polygon fill="#00ff00" stroke="#00ff00" stroke-width=".1358" points="1086.6856,-924.4505 1092.4023,-915.5303 1082.3706,-918.9385 1086.6856,-924.4505"/>
<text text-anchor="middle" x="497.5" y="-1299.4142" font-family="Times,serif" font-size="14.00" fill="#000000">0&#45;&gt;443</text>
<text text-anchor="middle" x="497.5" y="-1284.4142" font-family="Times,serif" font-size="14.00" fill="#000000">8</text>
</g>
<!-- 10.0.0.162&#45;&gt;Internet -->
<g id="edge27" class="edge">
<title>10.0.0.162&#45;&gt;Internet</title>
<path fill="none" stroke="#ff0000" stroke-width=".2037" d="M219.099,-1127.8949C282.6461,-1139.6326 373.0155,-1154.4497 453,-1160.6142 595.7595,-1171.6169 857.5592,-1148.0215 913,-1136.6142 962.43,-1126.4437 987.9541,-1137.5992 1020,-1098.6142 1054.8042,-1056.2737 1013.2195,-1025.5016 1038,-976.6142 1048.9417,-955.0283 1068.2627,-935.8849 1084.936,-922.0852"/>
<polygon fill="#ff0000" stroke="#ff0000" stroke-width=".2037" points="1087.2331,-924.7298 1092.8601,-915.7527 1082.8631,-919.2614 1087.2331,-924.7298"/>
<text text-anchor="middle" x="497.5" y="-1181.4142" font-family="Times,serif" font-size="14.00" fill="#000000">0&#45;&gt;80</text>
<text text-anchor="middle" x="497.5" y="-1166.4142" font-family="Times,serif" font-size="14.00" fill="#000000">12</text>
</g>
<!-- 10.0.0.162&#45;&gt;Broadcast -->
<g id="edge30" class="edge">
<title>10.0.0.162&#45;&gt;Broadcast</title>
<path fill="none" stroke="#d3d3d3" stroke-width=".1019" d="M219.1655,-1106.0372C301.4979,-1099.4301 431.5271,-1086.2175 542,-1062.6142 710.8186,-1026.545 798.6331,-1076.9236 913,-947.6142 942.9177,-913.7876 904.3399,-884.0634 931,-847.6142 957.4085,-811.5091 993.126,-836.3742 1020,-800.6142 1072.7788,-730.3839 1104.3097,-454.3437 1113.3081,-364.8139"/>
<polygon fill="#d3d3d3" stroke="#d3d3d3" stroke-width=".1019" points="1116.8157,-364.909 1114.3164,-354.6132 1109.8496,-364.2204 1116.8157,-364.909"/>
<text text-anchor="middle" x="497.5" y="-1097.4142" font-family="Times,serif" font-size="14.00" fill="#000000">0&#45;&gt;0</text>
<text text-anchor="middle" x="497.5" y="-1082.4142" font-family="Times,serif" font-size="14.00" fill="#000000">6</text>
</g>
<!-- 10.0.0.162&#45;&gt;10.0.0.1 -->
<g id="edge22" class="edge">
<title>10.0.0.162&#45;&gt;10.0.0.1</title>
<path fill="none" stroke="#d3d3d3" stroke-width=".2037" d="M195.6813,-1092.5245C222.352,-1081.4299 252.6429,-1065.1184 274,-1042.6142 335.6654,-977.6368 316.7805,-939.0967 354,-857.6142 361.9809,-840.1421 371.6772,-820.9275 379.5812,-805.7091"/>
<polygon fill="#d3d3d3" stroke="#d3d3d3" stroke-width=".2037" points="382.7069,-807.2847 384.2395,-796.8013 376.5039,-804.0408 382.7069,-807.2847"/>
<text text-anchor="middle" x="314" y="-1038.4142" font-family="Times,serif" font-size="14.00" fill="#000000">0&#45;&gt;53</text>
<text text-anchor="middle" x="314" y="-1023.4142" font-family="Times,serif" font-size="14.00" fill="#000000">12</text>
</g>
<!-- 10.0.0.45 -->
<g id="node7" class="node">
<title>10.0.0.45</title>
<g id="a_node7"><a xlink:href="index.php?section=ipanalyze-10.0.0.45" xlink:title="10.0.0.45\nLaptop&#45;hkohn.fritz.box." target="_parent">
<polygon fill="#d3d3d3" stroke="#000000" points="229.5,-419.6142 44.5,-419.6142 44.5,-381.6142 229.5,-381.6142 229.5,-419.6142"/>
<text text-anchor="middle" x="137" y="-404.4142" font-family="Times,serif" font-size="14.00" fill="#000000">10.0.0.45</text>
<text text-anchor="middle" x="137" y="-389.4142" font-family="Times,serif" font-size="14.00" fill="#000000">Laptop&#45;hkohn.fritz.box.</text>
</a>
</g>
</g>
<!-- 10.0.0.45&#45;&gt;Internet -->
<g id="edge1" class="edge">
<title>10.0.0.45&#45;&gt;Internet</title>
<path fill="none" stroke="#ff0000" stroke-width=".1358" d="M229.5185,-390.9891C292.4479,-384.9375 377.6498,-377.7088 453,-374.6142 492.5222,-372.9911 508.7832,-353.1367 542,-374.6142 558.3708,-385.1994 544.6505,-402.5958 560,-414.6142 723.6334,-542.737 869.1071,-355.7064 1020,-498.6142 1074.7156,-550.4344 1104.3615,-788.2609 1113.1639,-871.0801"/>
<polygon fill="#ff0000" stroke="#ff0000" stroke-width=".1358" points="1109.7077,-871.683 1114.2239,-881.267 1116.6701,-870.9585 1109.7077,-871.683"/>
<text text-anchor="middle" x="497.5" y="-393.4142" font-family="Times,serif" font-size="14.00" fill="#000000">0&#45;&gt;80</text>
<text text-anchor="middle" x="497.5" y="-378.4142" font-family="Times,serif" font-size="14.00" fill="#000000">8</text>
</g>
<!-- 10.0.0.45&#45;&gt;Internet -->
<g id="edge9" class="edge">
<title>10.0.0.45&#45;&gt;Internet</title>
<path fill="none" stroke="#00ff00" stroke-width="3.9049" d="M160.2228,-419.7235C210.7406,-460.5395 335.5348,-557.3319 453,-616.6142 490.3941,-635.4863 509.0988,-621.6916 542,-647.6142 553.6205,-656.77 547.1882,-668.2169 560,-675.6142 648.6269,-726.786 934.8192,-640.8911 1020,-697.6142 1079.9883,-737.5613 1103.4514,-825.7773 1111.8184,-871.2636"/>
<polygon fill="#00ff00" stroke="#00ff00" stroke-width="3.9049" points="1108.4058,-872.0708 1113.5507,-881.3325 1115.3044,-870.8838 1108.4058,-872.0708"/>
<text text-anchor="middle" x="497.5" y="-666.4142" font-family="Times,serif" font-size="14.00" fill="#000000">0&#45;&gt;443</text>
<text text-anchor="middle" x="497.5" y="-651.4142" font-family="Times,serif" font-size="14.00" fill="#000000">230</text>
</g>
<!-- 10.0.0.45&#45;&gt;Internet -->
<g id="edge23" class="edge">
<title>10.0.0.45&#45;&gt;Internet</title>
<path fill="none" stroke="#d3d3d3" stroke-width="10" d="M204.9522,-419.685C231.9144,-426.8486 263.2861,-434.6843 292,-440.6142 319.5328,-446.3002 519.9397,-462.1865 542,-479.6142 558.5792,-492.7119 543.7294,-510.1351 560,-523.6142 683.3033,-625.7633 766.5084,-530.9743 913,-595.6142 966.8413,-619.3719 983.3963,-627.533 1020,-673.6142 1069.1966,-735.549 1097.506,-826.4273 1109.3619,-871.7572"/>
<polygon fill="#d3d3d3" stroke="#d3d3d3" stroke-width="10" points="1100.8909,-873.9499 1111.835,-881.4858 1117.8514,-869.6382 1100.8909,-873.9499"/>
<text text-anchor="middle" x="497.5" y="-498.4142" font-family="Times,serif" font-size="14.00" fill="#000000">0&#45;&gt;443</text>
<text text-anchor="middle" x="497.5" y="-483.4142" font-family="Times,serif" font-size="14.00" fill="#000000">589</text>
</g>
<!-- 10.0.0.45&#45;&gt;Internet -->
<g id="edge34" class="edge">
<title>10.0.0.45&#45;&gt;Internet</title>
<path fill="none" stroke="#d3d3d3" stroke-width=".8659" d="M229.708,-402.0957C340.8493,-404.5287 515.5374,-410.692 542,-425.6142 554.2423,-432.5176 548.2688,-443.8741 560,-451.6142 693.6496,-539.7953 766.1131,-459.8775 913,-523.6142 966.5102,-546.8332 985.5668,-552.5311 1020,-599.6142 1083.0789,-685.8669 1105.7898,-815.2359 1113.007,-871.6455"/>
<polygon fill="#d3d3d3" stroke="#d3d3d3" stroke-width=".8659" points="1109.5371,-872.1062 1114.216,-881.6119 1116.4862,-871.2632 1109.5371,-872.1062"/>
<text text-anchor="middle" x="497.5" y="-444.4142" font-family="Times,serif" font-size="14.00" fill="#000000">137&#45;&gt;137</text>
<text text-anchor="middle" x="497.5" y="-429.4142" font-family="Times,serif" font-size="14.00" fill="#000000">51</text>
</g>
<!-- 10.0.0.45&#45;&gt;Broadcast -->
<g id="edge8" class="edge">
<title>10.0.0.45&#45;&gt;Broadcast</title>
<path fill="none" stroke="#d3d3d3" stroke-width=".1019" d="M171.5568,-381.5254C242.0215,-343.7777 408.4698,-260.5704 560,-229.6142 660.1652,-209.1514 927.3072,-179.4882 1020,-222.6142 1058.3591,-240.4611 1086.879,-282.0189 1102.4792,-309.7165"/>
<polygon fill="#d3d3d3" stroke="#d3d3d3" stroke-width=".1019" points="1099.417,-311.4119 1107.2699,-318.524 1105.5662,-308.0671 1099.417,-311.4119"/>
<text text-anchor="middle" x="497.5" y="-276.4142" font-family="Times,serif" font-size="14.00" fill="#000000">137&#45;&gt;137</text>
<text text-anchor="middle" x="497.5" y="-261.4142" font-family="Times,serif" font-size="14.00" fill="#000000">6</text>
</g>
<!-- 10.0.0.45&#45;&gt;Broadcast -->
<g id="edge29" class="edge">
<title>10.0.0.45&#45;&gt;Broadcast</title>
<path fill="none" stroke="#d3d3d3" stroke-width=".1698" d="M157.4997,-381.5853C204.9889,-338.934 328.0572,-236.4643 453,-198.6142 573.5881,-162.0833 909.1556,-138.7016 1020,-198.6142 1063.975,-222.3832 1092.077,-276.122 1105.8607,-309.0867"/>
<polygon fill="#d3d3d3" stroke="#d3d3d3" stroke-width=".1698" points="1102.7046,-310.6197 1109.6804,-318.594 1109.2,-308.01 1102.7046,-310.6197"/>
<text text-anchor="middle" x="497.5" y="-217.4142" font-family="Times,serif" font-size="14.00" fill="#000000">5353&#45;&gt;5353</text>
<text text-anchor="middle" x="497.5" y="-202.4142" font-family="Times,serif" font-size="14.00" fill="#000000">10</text>
</g>
<!-- 10.0.0.45&#45;&gt;Broadcast -->
<g id="edge38" class="edge">
<title>10.0.0.45&#45;&gt;Broadcast</title>
<path fill="none" stroke="#d3d3d3" stroke-width=".1698" d="M152.8778,-381.2913C203.997,-321.072 371.9584,-138.3901 560,-97.6142 659.9014,-75.9511 935.3941,-38.2433 1020,-95.6142 1091.6882,-144.2257 1109.8411,-255.8135 1114.4364,-308.3203"/>
<polygon fill="#d3d3d3" stroke="#d3d3d3" stroke-width=".1698" points="1110.9691,-308.8818 1115.2256,-318.584 1117.9485,-308.3451 1110.9691,-308.8818"/>
<text text-anchor="middle" x="497.5" y="-153.4142" font-family="Times,serif" font-size="14.00" fill="#000000">0&#45;&gt;0</text>
<text text-anchor="middle" x="497.5" y="-138.4142" font-family="Times,serif" font-size="14.00" fill="#000000">10</text>
</g>
<!-- 10.0.0.45&#45;&gt;10.0.0.1 -->
<g id="edge32" class="edge">
<title>10.0.0.45&#45;&gt;10.0.0.1</title>
<path fill="none" stroke="#d3d3d3" stroke-width=".6791" d="M158.3243,-419.8405C198.0107,-456.5927 283.8964,-540.8213 336,-626.6142 359.9939,-666.1221 377.2978,-717.1665 386.608,-748.6329"/>
<polygon fill="#d3d3d3" stroke="#d3d3d3" stroke-width=".6791" points="383.3223,-749.8706 389.4571,-758.5086 390.048,-747.9303 383.3223,-749.8706"/>
<text text-anchor="middle" x="314" y="-645.4142" font-family="Times,serif" font-size="14.00" fill="#000000">0&#45;&gt;53</text>
<text text-anchor="middle" x="314" y="-630.4142" font-family="Times,serif" font-size="14.00" fill="#000000">40</text>
</g>
<!-- 10.0.0.123 -->
<g id="node8" class="node">
<title>10.0.0.123</title>
<g id="a_node8"><a xlink:href="index.php?section=ipanalyze-10.0.0.123" xlink:title="10.0.0.123\nMSI.fritz.box." target="_parent">
<polygon fill="#d3d3d3" stroke="#000000" points="195,-1033.6142 79,-1033.6142 79,-995.6142 195,-995.6142 195,-1033.6142"/>
<text text-anchor="middle" x="137" y="-1018.4142" font-family="Times,serif" font-size="14.00" fill="#000000">10.0.0.123</text>
<text text-anchor="middle" x="137" y="-1003.4142" font-family="Times,serif" font-size="14.00" fill="#000000">MSI.fritz.box.</text>
</a>
</g>
</g>
<!-- 10.0.0.123&#45;&gt;Internet -->
<g id="edge31" class="edge">
<title>10.0.0.123&#45;&gt;Internet</title>
<path fill="none" stroke="#00ff00" stroke-width=".1868" d="M181.4615,-1033.6747C241.6774,-1058.3531 353.1272,-1100.0416 453,-1115.6142 642.885,-1145.222 926.4692,-1147.5799 1020,-1062.6142 1048.9046,-1036.3566 1019.3103,-1010.9017 1038,-976.6142 1049.6608,-955.2217 1069.1691,-935.9654 1085.7572,-922.0604"/>
<polygon fill="#00ff00" stroke="#00ff00" stroke-width=".1868" points="1088.0609,-924.6984 1093.6186,-915.6783 1083.6489,-919.2638 1088.0609,-924.6984"/>
<text text-anchor="middle" x="497.5" y="-1145.4142" font-family="Times,serif" font-size="14.00" fill="#000000">0&#45;&gt;443</text>
<text text-anchor="middle" x="497.5" y="-1130.4142" font-family="Times,serif" font-size="14.00" fill="#000000">11</text>
</g>
<!-- 10.0.0.123&#45;&gt;Internet -->
<g id="edge37" class="edge">
<title>10.0.0.123&#45;&gt;Internet</title>
<path fill="none" stroke="#d3d3d3" stroke-width=".3396" d="M195.0749,-1020.6439C224.1432,-1023.3666 259.8931,-1026.2702 292,-1027.6142 311.5384,-1028.4321 316.4446,-1027.7 336,-1027.6142 374.0011,-1027.4476 988.626,-1043.0567 1020,-1021.6142 1037.784,-1009.4598 1026.0845,-994.5592 1038,-976.6142 1051.5678,-956.1808 1071.2471,-936.8019 1087.443,-922.5965"/>
<polygon fill="#d3d3d3" stroke="#d3d3d3" stroke-width=".3396" points="1089.7576,-925.2223 1095.0718,-916.0566 1085.2017,-919.9078 1089.7576,-925.2223"/>
<text text-anchor="middle" x="497.5" y="-1049.4142" font-family="Times,serif" font-size="14.00" fill="#000000">0&#45;&gt;53</text>
<text text-anchor="middle" x="497.5" y="-1034.4142" font-family="Times,serif" font-size="14.00" fill="#000000">20</text>
</g>
<!-- 10.0.0.123&#45;&gt;10.0.0.1 -->
<g id="edge10" class="edge">
<title>10.0.0.123&#45;&gt;10.0.0.1</title>
<path fill="none" stroke="#d3d3d3" stroke-width=".3396" d="M158.0723,-995.2195C204.229,-952.7374 314.2814,-851.4465 366.3176,-803.553"/>
<polygon fill="#d3d3d3" stroke="#d3d3d3" stroke-width=".3396" points="368.8685,-805.962 373.8562,-796.6145 364.128,-800.8114 368.8685,-805.962"/>
<text text-anchor="middle" x="314" y="-886.4142" font-family="Times,serif" font-size="14.00" fill="#000000">0&#45;&gt;53</text>
<text text-anchor="middle" x="314" y="-871.4142" font-family="Times,serif" font-size="14.00" fill="#000000">20</text>
</g>
<!-- 10.0.0.123&#45;&gt;10.0.0.255 -->
<g id="edge6" class="edge">
<title>10.0.0.123&#45;&gt;10.0.0.255</title>
<path fill="none" stroke="#d3d3d3" stroke-width="3.3616" d="M192.3472,-995.5361C221.648,-986.1146 258.4242,-975.3516 292,-968.6142 422.851,-942.3574 578.4496,-929.7179 666.5238,-924.2484"/>
<polygon fill="#d3d3d3" stroke="#d3d3d3" stroke-width="3.3616" points="666.893,-927.7325 676.6621,-923.6321 666.4682,-920.7454 666.893,-927.7325"/>
<text text-anchor="middle" x="394.5" y="-975.4142" font-family="Times,serif" font-size="14.00" fill="#000000">0&#45;&gt;0</text>
<text text-anchor="middle" x="394.5" y="-960.4142" font-family="Times,serif" font-size="14.00" fill="#000000">198</text>
</g>
<!-- 10.0.0.85 -->
<g id="node9" class="node">
<title>10.0.0.85</title>
<g id="a_node9"><a xlink:href="index.php?section=ipanalyze-10.0.0.85" xlink:title="10.0.0.85\nIPCAM.fritz.box." target="_parent">
<polygon fill="#d3d3d3" stroke="#000000" points="205.5,-1242.6142 68.5,-1242.6142 68.5,-1204.6142 205.5,-1204.6142 205.5,-1242.6142"/>
<text text-anchor="middle" x="137" y="-1227.4142" font-family="Times,serif" font-size="14.00" fill="#000000">10.0.0.85</text>
<text text-anchor="middle" x="137" y="-1212.4142" font-family="Times,serif" font-size="14.00" fill="#000000">IPCAM.fritz.box.</text>
</a>
</g>
</g>
<!-- 10.0.0.111 -->
<g id="node10" class="node">
<title>10.0.0.111</title>
<g id="a_node10"><a xlink:href="index.php?section=ipanalyze-10.0.0.111" xlink:title="10.0.0.111\nTIZEN.fritz.box." target="_parent">
<polygon fill="#d3d3d3" stroke="#000000" points="203.5,-855.6142 70.5,-855.6142 70.5,-817.6142 203.5,-817.6142 203.5,-855.6142"/>
<text text-anchor="middle" x="137" y="-840.4142" font-family="Times,serif" font-size="14.00" fill="#000000">10.0.0.111</text>
<text text-anchor="middle" x="137" y="-825.4142" font-family="Times,serif" font-size="14.00" fill="#000000">TIZEN.fritz.box.</text>
</a>
</g>
</g>
<!-- 10.0.0.111&#45;&gt;Internet -->
<g id="edge3" class="edge">
<title>10.0.0.111&#45;&gt;Internet</title>
<path fill="none" stroke="#00ff00" stroke-width=".1698" d="M195.9707,-855.6866C239.8466,-872.5732 298.4029,-901.1963 336,-943.6142 350.5621,-960.0435 335.8671,-977.238 354,-989.6142 383.7343,-1009.9088 400.151,-998.6445 435,-989.6142 443.8591,-987.3186 444.2227,-982.2049 453,-979.6142 695.2341,-908.1168 774.6544,-1001.5707 1020,-941.6142 1040.2773,-936.659 1061.6633,-927.7073 1079.09,-919.3376"/>
<polygon fill="#00ff00" stroke="#00ff00" stroke-width=".1698" points="1080.9134,-922.3408 1088.332,-914.7767 1077.8156,-916.0636 1080.9134,-922.3408"/>
<text text-anchor="middle" x="497.5" y="-998.4142" font-family="Times,serif" font-size="14.00" fill="#000000">0&#45;&gt;443</text>
<text text-anchor="middle" x="497.5" y="-983.4142" font-family="Times,serif" font-size="14.00" fill="#000000">10</text>
</g>
<!-- 10.0.0.111&#45;&gt;Broadcast -->
<g id="edge21" class="edge">
<title>10.0.0.111&#45;&gt;Broadcast</title>
<path fill="none" stroke="#d3d3d3" stroke-width="2.1053" d="M195.8295,-817.5285C223.7136,-805.5138 255.0034,-787.1557 274,-760.6142 300.2831,-723.8922 264.7112,-696.5952 292,-660.6142 340.0474,-597.2626 377.5014,-607.5529 453,-582.6142 502.3923,-566.299 863.7417,-512.3298 913,-495.6142 963.4432,-478.4966 977.5545,-473.7998 1020,-441.6142 1050.3236,-418.6204 1078.9186,-385.2694 1096.8812,-362.3578"/>
<polygon fill="#d3d3d3" stroke="#d3d3d3" stroke-width="2.1053" points="1099.6625,-364.4826 1103.0015,-354.4276 1094.121,-360.2058 1099.6625,-364.4826"/>
<text text-anchor="middle" x="497.5" y="-601.4142" font-family="Times,serif" font-size="14.00" fill="#000000">0&#45;&gt;0</text>
<text text-anchor="middle" x="497.5" y="-586.4142" font-family="Times,serif" font-size="14.00" fill="#000000">124</text>
</g>
<!-- 10.0.0.111&#45;&gt;10.0.0.1 -->
<g id="edge39" class="edge">
<title>10.0.0.111&#45;&gt;10.0.0.1</title>
<path fill="none" stroke="#d3d3d3" stroke-width=".2886" d="M186.5017,-817.5023C216.5661,-806.6897 255.9736,-793.9101 292,-786.6142 308.6738,-783.2376 327.1271,-781.1277 343.7283,-779.8094"/>
<polygon fill="#d3d3d3" stroke="#d3d3d3" stroke-width=".2886" points="344.0696,-783.294 353.7932,-779.0866 343.5681,-776.3119 344.0696,-783.294"/>
<text text-anchor="middle" x="314" y="-805.4142" font-family="Times,serif" font-size="14.00" fill="#000000">0&#45;&gt;53</text>
<text text-anchor="middle" x="314" y="-790.4142" font-family="Times,serif" font-size="14.00" fill="#000000">17</text>
</g>
<!-- 10.0.0.111&#45;&gt;10.0.0.255 -->
<g id="edge28" class="edge">
<title>10.0.0.111&#45;&gt;10.0.0.255</title>
<path fill="none" stroke="#d3d3d3" stroke-width=".5263" d="M203.6287,-851.4634C230.9598,-857.3814 262.945,-864.0858 292,-869.6142 355.3086,-881.6602 375.5399,-868.7629 435,-893.6142 444.105,-897.4197 443.6882,-903.3474 453,-906.6142 523.8441,-931.4684 610.7747,-931.6983 669.5534,-927.8103"/>
<polygon fill="#d3d3d3" stroke="#d3d3d3" stroke-width=".5263" points="670.1044,-931.2797 679.8269,-927.0698 669.6011,-924.2978 670.1044,-931.2797"/>
<text text-anchor="middle" x="394.5" y="-912.4142" font-family="Times,serif" font-size="14.00" fill="#000000">0&#45;&gt;0</text>
<text text-anchor="middle" x="394.5" y="-897.4142" font-family="Times,serif" font-size="14.00" fill="#000000">31</text>
</g>
<!-- 10.0.0.112 -->
<g id="node11" class="node">
<title>10.0.0.112</title>
<g id="a_node11"><a xlink:href="index.php?section=ipanalyze-10.0.0.112" xlink:title="10.0.0.112\nBrother&#45;MFC&#45;9332CDW.fritz.box." target="_parent">
<polygon fill="#d3d3d3" stroke="#000000" points="864.5,-405.6142 608.5,-405.6142 608.5,-367.6142 864.5,-367.6142 864.5,-405.6142"/>
<text text-anchor="middle" x="736.5" y="-390.4142" font-family="Times,serif" font-size="14.00" fill="#000000">10.0.0.112</text>
<text text-anchor="middle" x="736.5" y="-375.4142" font-family="Times,serif" font-size="14.00" fill="#000000">Brother&#45;MFC&#45;9332CDW.fritz.box.</text>
</a>
</g>
</g>
<!-- 10.0.0.112&#45;&gt;Broadcast -->
<g id="edge2" class="edge">
<title>10.0.0.112&#45;&gt;Broadcast</title>
<path fill="none" stroke="#d3d3d3" stroke-width=".1528" d="M864.6314,-383.089C913.5553,-380.1867 969.6568,-374.9658 1020,-365.6142 1035.8663,-362.667 1052.8281,-358.0519 1068.0119,-353.3632"/>
<polygon fill="#d3d3d3" stroke="#d3d3d3" stroke-width=".1528" points="1069.2304,-356.6486 1077.7037,-350.2882 1067.1134,-349.9764 1069.2304,-356.6486"/>
<text text-anchor="middle" x="975.5" y="-395.4142" font-family="Times,serif" font-size="14.00" fill="#000000">5353&#45;&gt;5353</text>
<text text-anchor="middle" x="975.5" y="-380.4142" font-family="Times,serif" font-size="14.00" fill="#000000">9</text>
</g>
<!-- 10.0.0.106 -->
<g id="node12" class="node">
<title>10.0.0.106</title>
<g id="a_node12"><a xlink:href="index.php?section=ipanalyze-10.0.0.106" xlink:title="10.0.0.106\nDE42LAP00016.fritz.box." target="_parent">
<polygon fill="#d3d3d3" stroke="#000000" points="836.5,-340.6142 636.5,-340.6142 636.5,-302.6142 836.5,-302.6142 836.5,-340.6142"/>
<text text-anchor="middle" x="736.5" y="-325.4142" font-family="Times,serif" font-size="14.00" fill="#000000">10.0.0.106</text>
<text text-anchor="middle" x="736.5" y="-310.4142" font-family="Times,serif" font-size="14.00" fill="#000000">DE42LAP00016.fritz.box.</text>
</a>
</g>
</g>
<!-- 10.0.0.106&#45;&gt;Broadcast -->
<g id="edge7" class="edge">
<title>10.0.0.106&#45;&gt;Broadcast</title>
<path fill="none" stroke="#d3d3d3" stroke-width=".2377" d="M817.8716,-302.602C852.5268,-295.4267 893.5278,-288.1467 931,-284.6142 970.381,-280.9018 981.6568,-274.896 1020,-284.6142 1042.8424,-290.4037 1066.1388,-302.8346 1084.0606,-314.0906"/>
<polygon fill="#d3d3d3" stroke="#d3d3d3" stroke-width=".2377" points="1082.6167,-317.3256 1092.9118,-319.8282 1086.4244,-311.4518 1082.6167,-317.3256"/>
<text text-anchor="middle" x="975.5" y="-303.4142" font-family="Times,serif" font-size="14.00" fill="#000000">5353&#45;&gt;5353</text>
<text text-anchor="middle" x="975.5" y="-288.4142" font-family="Times,serif" font-size="14.00" fill="#000000">14</text>
</g>
<!-- 10.0.0.106&#45;&gt;Broadcast -->
<g id="edge33" class="edge">
<title>10.0.0.106&#45;&gt;Broadcast</title>
<path fill="none" stroke="#d3d3d3" stroke-width=".2037" d="M836.7037,-325.5749C903.4083,-328.2115 989.2694,-331.6053 1048.0774,-333.9298"/>
<polygon fill="#d3d3d3" stroke="#d3d3d3" stroke-width=".2037" points="1048.2371,-337.4387 1058.3675,-334.3365 1048.5136,-330.4442 1048.2371,-337.4387"/>
<text text-anchor="middle" x="975.5" y="-350.4142" font-family="Times,serif" font-size="14.00" fill="#000000">0&#45;&gt;0</text>
<text text-anchor="middle" x="975.5" y="-335.4142" font-family="Times,serif" font-size="14.00" fill="#000000">12</text>
</g>
<!-- 10.0.0.134 -->
<g id="node13" class="node">
<title>10.0.0.134</title>
<g id="a_node13"><a xlink:href="index.php?section=ipanalyze-10.0.0.134" xlink:title="10.0.0.134\nccu3&#45;webui.fritz.box." target="_parent">
<polygon fill="#d3d3d3" stroke="#000000" points="820,-276.6142 653,-276.6142 653,-238.6142 820,-238.6142 820,-276.6142"/>
<text text-anchor="middle" x="736.5" y="-261.4142" font-family="Times,serif" font-size="14.00" fill="#000000">10.0.0.134</text>
<text text-anchor="middle" x="736.5" y="-246.4142" font-family="Times,serif" font-size="14.00" fill="#000000">ccu3&#45;webui.fritz.box.</text>
</a>
</g>
</g>
<!-- 10.0.0.134&#45;&gt;Broadcast -->
<g id="edge35" class="edge">
<title>10.0.0.134&#45;&gt;Broadcast</title>
<path fill="none" stroke="#d3d3d3" stroke-width=".1019" d="M806.7931,-238.6003C865.8781,-226.2577 951.4236,-217.0584 1020,-244.6142 1053.0472,-257.8935 1081.1281,-288.584 1098.225,-310.875"/>
<polygon fill="#d3d3d3" stroke="#d3d3d3" stroke-width=".1019" points="1095.4538,-313.0137 1104.2273,-318.9531 1101.0725,-308.8388 1095.4538,-313.0137"/>
<text text-anchor="middle" x="975.5" y="-263.4142" font-family="Times,serif" font-size="14.00" fill="#000000">0&#45;&gt;0</text>
<text text-anchor="middle" x="975.5" y="-248.4142" font-family="Times,serif" font-size="14.00" fill="#000000">6</text>
</g>
<!-- 10.0.0.32 -->
<g id="node14" class="node">
<title>10.0.0.32</title>
<g id="a_node14"><a xlink:href="index.php?section=ipanalyze-10.0.0.32" xlink:title="10.0.0.32\nIPCAM.fritz.box." target="_parent">
<polygon fill="#d3d3d3" stroke="#000000" points="205.5,-1298.6142 68.5,-1298.6142 68.5,-1260.6142 205.5,-1260.6142 205.5,-1298.6142"/>
<text text-anchor="middle" x="137" y="-1283.4142" font-family="Times,serif" font-size="14.00" fill="#000000">10.0.0.32</text>
<text text-anchor="middle" x="137" y="-1268.4142" font-family="Times,serif" font-size="14.00" fill="#000000">IPCAM.fritz.box.</text>
</a>
</g>
</g>
<!-- 10.0.0.51 -->
<g id="node15" class="node">
<title>10.0.0.51</title>
<g id="a_node15"><a xlink:href="index.php?section=ipanalyze-10.0.0.51" xlink:title="10.0.0.51\nLAPTOP&#45;1210.fritz.box." target="_parent">
<polygon fill="#d3d3d3" stroke="#000000" points="230,-1354.6142 44,-1354.6142 44,-1316.6142 230,-1316.6142 230,-1354.6142"/>
<text text-anchor="middle" x="137" y="-1339.4142" font-family="Times,serif" font-size="14.00" fill="#000000">10.0.0.51</text>
<text text-anchor="middle" x="137" y="-1324.4142" font-family="Times,serif" font-size="14.00" fill="#000000">LAPTOP&#45;1210.fritz.box.</text>
</a>
</g>
</g>
<!-- 10.0.0.183 -->
<g id="node16" class="node">
<title>10.0.0.183</title>
<g id="a_node16"><a xlink:href="index.php?section=ipanalyze-10.0.0.183" xlink:title="10.0.0.183\nGalaxy&#45;Tab&#45;A7&#45;von&#45;Sandra.fritz.box." target="_parent">
<polygon fill="#d3d3d3" stroke="#000000" points="274,-1410.6142 0,-1410.6142 0,-1372.6142 274,-1372.6142 274,-1410.6142"/>
<text text-anchor="middle" x="137" y="-1395.4142" font-family="Times,serif" font-size="14.00" fill="#000000">10.0.0.183</text>
<text text-anchor="middle" x="137" y="-1380.4142" font-family="Times,serif" font-size="14.00" fill="#000000">Galaxy&#45;Tab&#45;A7&#45;von&#45;Sandra.fritz.box.</text>
</a>
</g>
</g>
<!-- 10.0.0.171 -->
<g id="node17" class="node">
<title>10.0.0.171</title>
<g id="a_node17"><a xlink:href="index.php?section=ipanalyze-10.0.0.171" xlink:title="10.0.0.171\nSandra&#45;S9.fritz.box." target="_parent">
<polygon fill="#d3d3d3" stroke="#000000" points="217,-1466.6142 57,-1466.6142 57,-1428.6142 217,-1428.6142 217,-1466.6142"/>
<text text-anchor="middle" x="137" y="-1451.4142" font-family="Times,serif" font-size="14.00" fill="#000000">10.0.0.171</text>
<text text-anchor="middle" x="137" y="-1436.4142" font-family="Times,serif" font-size="14.00" fill="#000000">Sandra&#45;S9.fritz.box.</text>
</a>
</g>
</g>
<!-- 10.0.0.173 -->
<g id="node18" class="node">
<title>10.0.0.173</title>
<g id="a_node18"><a xlink:href="index.php?section=ipanalyze-10.0.0.173" xlink:title="10.0.0.173\nGalaxy&#45;A6.fritz.box." target="_parent">
<polygon fill="#d3d3d3" stroke="#000000" points="216,-1522.6142 58,-1522.6142 58,-1484.6142 216,-1484.6142 216,-1522.6142"/>
<text text-anchor="middle" x="137" y="-1507.4142" font-family="Times,serif" font-size="14.00" fill="#000000">10.0.0.173</text>
<text text-anchor="middle" x="137" y="-1492.4142" font-family="Times,serif" font-size="14.00" fill="#000000">Galaxy&#45;A6.fritz.box.</text>
</a>
</g>
</g>
<!-- 10.0.0.56 -->
<g id="node19" class="node">
<title>10.0.0.56</title>
<g id="a_node19"><a xlink:href="index.php?section=ipanalyze-10.0.0.56" xlink:title="10.0.0.56\nGoogle&#45;Home&#45;Mini.fritz.box." target="_parent">
<polygon fill="#d3d3d3" stroke="#000000" points="846,-50.6142 627,-50.6142 627,-12.6142 846,-12.6142 846,-50.6142"/>
<text text-anchor="middle" x="736.5" y="-35.4142" font-family="Times,serif" font-size="14.00" fill="#000000">10.0.0.56</text>
<text text-anchor="middle" x="736.5" y="-20.4142" font-family="Times,serif" font-size="14.00" fill="#000000">Google&#45;Home&#45;Mini.fritz.box.</text>
</a>
</g>
</g>
<!-- 10.0.0.56&#45;&gt;Broadcast -->
<g id="edge24" class="edge">
<title>10.0.0.56&#45;&gt;Broadcast</title>
<path fill="none" stroke="#d3d3d3" stroke-width=".2037" d="M800.3667,-12.6036C862.6582,1.7777 956.9785,11.9963 1020,-34.6142 1065.135,-67.996 1099.3128,-240.0814 1111.3192,-308.5078"/>
<polygon fill="#d3d3d3" stroke="#d3d3d3" stroke-width=".2037" points="1107.9046,-309.3034 1113.054,-318.5627 1114.8027,-308.1132 1107.9046,-309.3034"/>
<text text-anchor="middle" x="975.5" y="-53.4142" font-family="Times,serif" font-size="14.00" fill="#000000">0&#45;&gt;0</text>
<text text-anchor="middle" x="975.5" y="-38.4142" font-family="Times,serif" font-size="14.00" fill="#000000">12</text>
</g>
<!-- 10.0.0.89 -->
<g id="node20" class="node">
<title>10.0.0.89</title>
<g id="a_node20"><a xlink:href="index.php?section=ipanalyze-10.0.0.89" xlink:title="10.0.0.89\nEAP225&#45;Outdoor&#45;CC&#45;32&#45;E5&#45;7C&#45;AB&#45;48.fritz.box." target="_parent">
<polygon fill="#d3d3d3" stroke="#000000" points="913,-144.6142 560,-144.6142 560,-106.6142 913,-106.6142 913,-144.6142"/>
<text text-anchor="middle" x="736.5" y="-129.4142" font-family="Times,serif" font-size="14.00" fill="#000000">10.0.0.89</text>
<text text-anchor="middle" x="736.5" y="-114.4142" font-family="Times,serif" font-size="14.00" fill="#000000">EAP225&#45;Outdoor&#45;CC&#45;32&#45;E5&#45;7C&#45;AB&#45;48.fritz.box.</text>
</a>
</g>
</g>
<!-- 10.0.0.89&#45;&gt;Broadcast -->
<g id="edge26" class="edge">
<title>10.0.0.89&#45;&gt;Broadcast</title>
<path fill="none" stroke="#d3d3d3" stroke-width=".6282" d="M807.7537,-106.5676C869.0253,-94.5232 957.194,-87.9578 1020,-128.6142 1082.5672,-169.1161 1104.972,-261.7836 1112.4867,-308.5378"/>
<polygon fill="#d3d3d3" stroke="#d3d3d3" stroke-width=".6282" points="1109.0477,-309.2067 1113.9837,-318.5815 1115.9712,-308.1747 1109.0477,-309.2067"/>
<text text-anchor="middle" x="975.5" y="-147.4142" font-family="Times,serif" font-size="14.00" fill="#000000">0&#45;&gt;0</text>
<text text-anchor="middle" x="975.5" y="-132.4142" font-family="Times,serif" font-size="14.00" fill="#000000">37</text>
</g>
<!-- 10.0.0.110&#45;&gt;Internet -->
<g id="edge5" class="edge">
<title>10.0.0.110&#45;&gt;Internet</title>
<path fill="none" stroke="#d3d3d3" stroke-width=".4414" d="M788.9792,-841.7558C824.477,-855.1804 872.1532,-874.1454 913,-893.6142 921.2613,-897.5518 922.1409,-901.3186 931,-903.6142 969.2909,-913.5364 980.453,-904.4378 1020,-903.6142 1031.8558,-903.3673 1044.5299,-902.9491 1056.6535,-902.4737"/>
<polygon fill="#d3d3d3" stroke="#d3d3d3" stroke-width=".4414" points="1056.8293,-905.9695 1066.6777,-902.0634 1056.543,-898.9753 1056.8293,-905.9695"/>
<text text-anchor="middle" x="975.5" y="-926.4142" font-family="Times,serif" font-size="14.00" fill="#000000">0&#45;&gt;443</text>
<text text-anchor="middle" x="975.5" y="-911.4142" font-family="Times,serif" font-size="14.00" fill="#000000">26</text>
</g>
<!-- 10.0.0.110&#45;&gt;Internet -->
<g id="edge19" class="edge">
<title>10.0.0.110&#45;&gt;Internet</title>
<path fill="none" stroke="#00ff00" stroke-width=".4924" d="M836.5595,-835.745C891.1449,-843.7731 959.6946,-855.2651 1020,-869.6142 1036.7393,-873.5972 1054.8159,-878.9593 1070.7196,-884.0484"/>
<polygon fill="#00ff00" stroke="#00ff00" stroke-width=".4924" points="1069.7175,-887.4029 1080.3097,-887.1671 1071.8823,-880.7461 1069.7175,-887.4029"/>
<text text-anchor="middle" x="975.5" y="-888.4142" font-family="Times,serif" font-size="14.00" fill="#000000">0&#45;&gt;443</text>
<text text-anchor="middle" x="975.5" y="-873.4142" font-family="Times,serif" font-size="14.00" fill="#000000">29</text>
</g>
<!-- 10.0.0.110&#45;&gt;Broadcast -->
<g id="edge11" class="edge">
<title>10.0.0.110&#45;&gt;Broadcast</title>
<path fill="none" stroke="#d3d3d3" stroke-width="1.511" d="M807.1387,-803.5769C844.0296,-793.6731 889.9272,-781.4116 931,-770.6142 970.5125,-760.227 991.4518,-776.8398 1020,-747.6142 1074.0797,-692.2514 1104.2712,-448.4101 1113.1754,-364.8356"/>
<polygon fill="#d3d3d3" stroke="#d3d3d3" stroke-width="1.511" points="1116.6659,-365.1084 1114.2238,-354.7988 1109.7037,-364.3811 1116.6659,-365.1084"/>
<text text-anchor="middle" x="975.5" y="-789.4142" font-family="Times,serif" font-size="14.00" fill="#000000">5353&#45;&gt;5353</text>
<text text-anchor="middle" x="975.5" y="-774.4142" font-family="Times,serif" font-size="14.00" fill="#000000">89</text>
</g>
<!-- 10.0.0.110&#45;&gt;Broadcast -->
<g id="edge15" class="edge">
<title>10.0.0.110&#45;&gt;Broadcast</title>
<path fill="none" stroke="#d3d3d3" stroke-width="1.0017" d="M769.7836,-803.5968C840.841,-762.7481 1002.3711,-668.4729 1020,-645.6142 1087.3578,-558.2739 1107.8601,-423.1397 1113.7576,-364.9031"/>
<polygon fill="#d3d3d3" stroke="#d3d3d3" stroke-width="1.0017" points="1117.2715,-364.919 1114.7245,-354.6349 1110.3024,-364.2627 1117.2715,-364.919"/>
<text text-anchor="middle" x="975.5" y="-724.4142" font-family="Times,serif" font-size="14.00" fill="#000000">0&#45;&gt;0</text>
<text text-anchor="middle" x="975.5" y="-709.4142" font-family="Times,serif" font-size="14.00" fill="#000000">59</text>
</g>
<!-- 10.0.0.110&#45;&gt;10.0.0.1 -->
<g id="edge13" class="edge">
<title>10.0.0.110&#45;&gt;10.0.0.1</title>
<path fill="none" stroke="#d3d3d3" stroke-width="1.1885" d="M636.3516,-822.0661C581.5882,-819.9679 512.8983,-814.3879 453,-800.6142 450.3494,-800.0047 447.6605,-799.2959 444.9659,-798.5129"/>
<polygon fill="#d3d3d3" stroke="#d3d3d3" stroke-width="1.1885" points="445.8325,-795.1154 435.2414,-795.3979 443.697,-801.7817 445.8325,-795.1154"/>
<text text-anchor="middle" x="497.5" y="-833.4142" font-family="Times,serif" font-size="14.00" fill="#000000">0&#45;&gt;53</text>
<text text-anchor="middle" x="497.5" y="-818.4142" font-family="Times,serif" font-size="14.00" fill="#000000">70</text>
</g>
<!-- 10.49.160.128 -->
<g id="node26" class="node">
<title>10.49.160.128</title>
<ellipse fill="none" stroke="#000000" cx="1115.9931" cy="-1003.6142" rx="77.9862" ry="18"/>
<text text-anchor="middle" x="1115.9931" y="-999.9142" font-family="Times,serif" font-size="14.00" fill="#000000">10.49.160.128</text>
</g>
<!-- 10.0.0.110&#45;&gt;10.49.160.128 -->
<g id="edge36" class="edge">
<title>10.0.0.110&#45;&gt;10.49.160.128</title>
<path fill="none" stroke="#ff0000" stroke-width=".5603" d="M822.9897,-841.6829C854.7234,-852.4005 888.7696,-868.803 913,-893.6142 928.9188,-909.9146 914.6067,-925.7911 931,-941.6142 959.5147,-969.1373 1000.6061,-984.453 1036.8222,-992.9707"/>
<polygon fill="#ff0000" stroke="#ff0000" stroke-width=".5603" points="1036.3734,-996.4559 1046.8933,-995.1973 1037.8847,-989.6209 1036.3734,-996.4559"/>
<text text-anchor="middle" x="975.5" y="-1006.4142" font-family="Times,serif" font-size="14.00" fill="#000000">0&#45;&gt;80</text>
<text text-anchor="middle" x="975.5" y="-991.4142" font-family="Times,serif" font-size="14.00" fill="#000000">33</text>
</g>
<!-- 10.0.0.36 -->
<g id="node22" class="node">
<title>10.0.0.36</title>
<g id="a_node22"><a xlink:href="index.php?section=ipanalyze-10.0.0.36" xlink:title="10.0.0.36\nIPCAM.fritz.box." target="_parent">
<polygon fill="#d3d3d3" stroke="#000000" points="205.5,-1578.6142 68.5,-1578.6142 68.5,-1540.6142 205.5,-1540.6142 205.5,-1578.6142"/>
<text text-anchor="middle" x="137" y="-1563.4142" font-family="Times,serif" font-size="14.00" fill="#000000">10.0.0.36</text>
<text text-anchor="middle" x="137" y="-1548.4142" font-family="Times,serif" font-size="14.00" fill="#000000">IPCAM.fritz.box.</text>
</a>
</g>
</g>
<!-- 10.0.0.104 -->
<g id="node23" class="node">
<title>10.0.0.104</title>
<g id="a_node23"><a xlink:href="index.php?section=ipanalyze-10.0.0.104" xlink:title="10.0.0.104\nhausintelligenz.fritz.box." target="_parent">
<polygon fill="#d3d3d3" stroke="#000000" points="234,-1634.6142 40,-1634.6142 40,-1596.6142 234,-1596.6142 234,-1634.6142"/>
<text text-anchor="middle" x="137" y="-1619.4142" font-family="Times,serif" font-size="14.00" fill="#000000">10.0.0.104</text>
<text text-anchor="middle" x="137" y="-1604.4142" font-family="Times,serif" font-size="14.00" fill="#000000">hausintelligenz.fritz.box.</text>
</a>
</g>
</g>
<!-- 10.0.0.175 -->
<g id="node25" class="node">
<title>10.0.0.175</title>
<ellipse fill="none" stroke="#000000" cx="137" cy="-608.6142" rx="60.3893" ry="18"/>
<text text-anchor="middle" x="137" y="-604.9142" font-family="Times,serif" font-size="14.00" fill="#000000">10.0.0.175</text>
</g>
<!-- 10.0.0.175&#45;&gt;Internet -->
<g id="edge25" class="edge">
<title>10.0.0.175&#45;&gt;Internet</title>
<path fill="none" stroke="#00ff00" stroke-width=".2716" d="M185.5519,-619.4444C344.5931,-655.0324 843.6873,-767.6366 913,-794.6142 921.5285,-797.9336 922.9284,-800.3011 931,-804.6142 981.3444,-831.5163 1040.0632,-861.4237 1077.6108,-880.3637"/>
<polygon fill="#00ff00" stroke="#00ff00" stroke-width=".2716" points="1076.1772,-883.5605 1086.6827,-884.9341 1079.3268,-877.3091 1076.1772,-883.5605"/>
<text text-anchor="middle" x="497.5" y="-717.4142" font-family="Times,serif" font-size="14.00" fill="#000000">0&#45;&gt;443</text>
<text text-anchor="middle" x="497.5" y="-702.4142" font-family="Times,serif" font-size="14.00" fill="#000000">16</text>
</g>
<!-- 10.0.0.175&#45;&gt;Broadcast -->
<g id="edge14" class="edge">
<title>10.0.0.175&#45;&gt;Broadcast</title>
<path fill="none" stroke="#d3d3d3" stroke-width=".1019" d="M190.127,-599.7671C230.4059,-592.6823 287.0007,-581.9179 336,-569.6142 388.7678,-556.3643 400.368,-547.3937 453,-533.6142 702.4538,-468.3054 786.1728,-519.3215 1020,-410.6142 1046.4753,-398.3058 1072.4503,-377.6016 1090.69,-361.2182"/>
<polygon fill="#d3d3d3" stroke="#d3d3d3" stroke-width=".1019" points="1093.5056,-363.3841 1098.5001,-354.0404 1088.7689,-358.2301 1093.5056,-363.3841"/>
<text text-anchor="middle" x="497.5" y="-552.4142" font-family="Times,serif" font-size="14.00" fill="#000000">5353&#45;&gt;5353</text>
<text text-anchor="middle" x="497.5" y="-537.4142" font-family="Times,serif" font-size="14.00" fill="#000000">6</text>
</g>
<!-- 10.0.0.175&#45;&gt;10.0.0.1 -->
<g id="edge17" class="edge">
<title>10.0.0.175&#45;&gt;10.0.0.1</title>
<path fill="none" stroke="#d3d3d3" stroke-width=".2207" d="M185.4198,-619.6285C228.5468,-631.3296 291.5267,-653.2566 336,-689.6142 355.6838,-705.7061 371.2,-730.1646 381.2923,-749.2153"/>
<polygon fill="#d3d3d3" stroke="#d3d3d3" stroke-width=".2207" points="378.2819,-751.017 385.937,-758.3417 384.5205,-747.8419 378.2819,-751.017"/>
<text text-anchor="middle" x="314" y="-708.4142" font-family="Times,serif" font-size="14.00" fill="#000000">0&#45;&gt;53</text>
<text text-anchor="middle" x="314" y="-693.4142" font-family="Times,serif" font-size="14.00" fill="#000000">13</text>
</g>
</g>
</svg>
